<?xml version="1.0" encoding="utf-8"?>
<!-- Generator: Adobe Illustrator 17.1.0, SVG Export Plug-In . SVG Version: 6.00 Build 0)  -->
<!DOCTYPE svg PUBLIC "-//W3C//DTD SVG 1.1//EN" "http://www.w3.org/Graphics/SVG/1.1/DTD/svg11.dtd">
<svg version="1.1" id="Слой_1" xmlns="http://www.w3.org/2000/svg" xmlns:xlink="http://www.w3.org/1999/xlink" x="0px" y="0px"
	 viewBox="0 0 171 58" enable-background="new 0 0 171 58" xml:space="preserve" width="171" height="58">
<g id="Layer_x0020_1">
	<path fill="#CC2D30" d="M44.5,39.3c0,3.1-2.5,5.5-5.5,5.5h-2.1c-4.4,0-7.1,4.1-7.8,6.5c-0.1,0.2-0.3,0.2-0.3,0
		c-0.7-2.5-3.3-6.5-7.8-6.5H19c-3.1,0-5.5-2.5-5.5-5.5V13.9c0-0.1,0.1-0.2,0.2-0.2h30.7c0.1,0,0.2,0.1,0.2,0.2V39.3z"/>
	<path fill="#FFFFFF" d="M75.7,29c3.3,0.7,4.6,2.4,4.4,6.9c0,7.4-3.5,8.9-10.3,8.8H55.6c-1.1,0-2.1-1-2.1-2.1V15.8
		c0-1.1,1-2.1,2.1-2.1h14.2c6.1-0.1,9.9,1.3,9.9,8.1C79.8,25.3,79,28,75.7,29z M170.5,1.2h-8.4v9.6h2.6V3.4h3.3v7.3h2.6V1.2z
		 M152.5,1.2l3.3,7c-0.1,0.2-0.2,0.4-0.3,0.5c-0.2,0.1-0.4,0.1-0.8,0.1c-0.2,0-0.3,0-0.5,0c-0.1,0-0.3,0-0.4-0.1v2.1
		c0.2,0,0.4,0.1,0.6,0.1c0.2,0,0.4,0,0.7,0c0.7,0,1.3-0.2,1.8-0.5c0.4-0.4,0.9-0.9,1.3-1.7l3.6-7.4h-2.9l-1.7,4.1h-0.1l-1.7-4.1
		H152.5z M148.4,10.8h-2.6V1.2h6.5v2.2h-4V10.8z M140.2,1.2v2h-4.4v1.7h2.4c1,0,1.7,0.2,2.2,0.7c0.5,0.5,0.7,1.2,0.7,2.3
		c0,1.1-0.3,1.8-0.8,2.3c-0.5,0.4-1.2,0.7-2.2,0.7h-4.9V1.2H140.2z M135.8,6.9v1.9h1.8c0.4,0,0.6-0.1,0.8-0.2
		c0.2-0.1,0.2-0.4,0.2-0.7c0-0.4-0.1-0.6-0.2-0.8c-0.2-0.1-0.4-0.2-0.8-0.2H135.8z M131.8,1.2h-8.4v9.6h2.6V3.4h3.3v7.3h2.6V1.2z
		 M119.9,7.2v0.3c0,0.6-0.1,0.9-0.4,1c-0.3,0.1-0.7,0.2-1.2,0.2c-0.5,0-0.9-0.1-1.1-0.2c-0.2-0.1-0.4-0.3-0.4-0.6
		c-0.1-0.3-0.1-0.7-0.1-1.2V5.2c0-0.5,0-0.8,0.1-1.1c0.1-0.3,0.2-0.4,0.4-0.6c0.2-0.1,0.6-0.2,1.1-0.2c0.4,0,0.8,0,1.1,0.1
		c0.3,0.1,0.4,0.4,0.5,0.8v0.4h2.6V4.3c0-0.8-0.2-1.4-0.4-1.9c-0.3-0.4-0.7-0.8-1.3-1c-0.6-0.2-1.3-0.3-2.1-0.3
		c-0.9,0-1.7,0.1-2.4,0.2c-0.7,0.2-1.2,0.5-1.6,1.1c-0.3,0.5-0.5,1.3-0.5,2.3v2.5c0,1.2,0.2,2,0.6,2.5c0.4,0.5,0.9,0.8,1.6,1
		c0.7,0.1,1.4,0.2,2.3,0.2c0.6,0,1.1,0,1.6-0.1c0.5-0.1,1-0.3,1.4-0.6c0.4-0.4,0.7-0.8,0.8-1.2c0.1-0.5,0.1-0.9,0.1-1.5V7.2H119.9z
		 M6.8,2.6c0-1.2,1-2.2,2.2-2.2s2.2,1,2.2,2.2s-1,2.2-2.2,2.2S6.8,3.8,6.8,2.6z M13.4,2.6c0-1.2,1-2.2,2.2-2.2s2.2,1,2.2,2.2
		s-1,2.2-2.2,2.2S13.4,3.8,13.4,2.6z M20.1,2.6c0-1.2,1-2.2,2.2-2.2s2.2,1,2.2,2.2s-1,2.2-2.2,2.2S20.1,3.8,20.1,2.6z M26.8,2.6
		c0-1.2,1-2.2,2.2-2.2c1.2,0,2.2,1,2.2,2.2s-1,2.2-2.2,2.2C27.8,4.8,26.8,3.8,26.8,2.6z M33.4,2.6c0-1.2,1-2.2,2.2-2.2
		s2.2,1,2.2,2.2s-1,2.2-2.2,2.2S33.4,3.8,33.4,2.6z M40.1,2.6c0-1.2,1-2.2,2.2-2.2c1.2,0,2.2,1,2.2,2.2s-1,2.2-2.2,2.2
		C41.1,4.8,40.1,3.8,40.1,2.6z M46.8,2.6c0-1.2,1-2.2,2.2-2.2c1.2,0,2.2,1,2.2,2.2s-1,2.2-2.2,2.2C47.7,4.8,46.8,3.8,46.8,2.6z
		 M53.4,2.6c0-1.2,1-2.2,2.2-2.2s2.2,1,2.2,2.2s-1,2.2-2.2,2.2S53.4,3.8,53.4,2.6z M0.1,9.3c0-1.2,1-2.2,2.2-2.2s2.2,1,2.2,2.2
		s-1,2.2-2.2,2.2S0.1,10.5,0.1,9.3z M6.8,9.3c0-1.2,1-2.2,2.2-2.2s2.2,1,2.2,2.2s-1,2.2-2.2,2.2S6.8,10.5,6.8,9.3z M13.4,9.3
		c0-1.2,1-2.2,2.2-2.2s2.2,1,2.2,2.2s-1,2.2-2.2,2.2S13.4,10.5,13.4,9.3z M20.1,9.3c0-1.2,1-2.2,2.2-2.2s2.2,1,2.2,2.2
		s-1,2.2-2.2,2.2S20.1,10.5,20.1,9.3z M26.8,9.3c0-1.2,1-2.2,2.2-2.2c1.2,0,2.2,1,2.2,2.2s-1,2.2-2.2,2.2
		C27.8,11.5,26.8,10.5,26.8,9.3z M33.4,9.3c0-1.2,1-2.2,2.2-2.2s2.2,1,2.2,2.2s-1,2.2-2.2,2.2S33.4,10.5,33.4,9.3z M40.1,9.3
		c0-1.2,1-2.2,2.2-2.2c1.2,0,2.2,1,2.2,2.2s-1,2.2-2.2,2.2C41.1,11.5,40.1,10.5,40.1,9.3z M46.8,9.3c0-1.2,1-2.2,2.2-2.2
		c1.2,0,2.2,1,2.2,2.2s-1,2.2-2.2,2.2C47.7,11.5,46.8,10.5,46.8,9.3z M53.4,9.3c0-1.2,1-2.2,2.2-2.2s2.2,1,2.2,2.2s-1,2.2-2.2,2.2
		S53.4,10.5,53.4,9.3z M0.1,15.9c0-1.2,1-2.2,2.2-2.2s2.2,1,2.2,2.2s-1,2.2-2.2,2.2S0.1,17.2,0.1,15.9z M0.1,22.6
		c0-1.2,1-2.2,2.2-2.2s2.2,1,2.2,2.2c0,1.2-1,2.2-2.2,2.2S0.1,23.8,0.1,22.6z M6.8,22.6c0-1.2,1-2.2,2.2-2.2s2.2,1,2.2,2.2
		c0,1.2-1,2.2-2.2,2.2S6.8,23.8,6.8,22.6z M46.8,22.6c0-1.2,1-2.2,2.2-2.2c1.2,0,2.2,1,2.2,2.2c0,1.2-1,2.2-2.2,2.2
		C47.7,24.8,46.8,23.8,46.8,22.6z M0.1,29.3c0-1.2,1-2.2,2.2-2.2s2.2,1,2.2,2.2c0,1.2-1,2.2-2.2,2.2S0.1,30.5,0.1,29.3z M6.8,29.3
		C6.8,28,7.8,27,9,27s2.2,1,2.2,2.2c0,1.2-1,2.2-2.2,2.2S6.8,30.5,6.8,29.3z M46.8,29.3c0-1.2,1-2.2,2.2-2.2c1.2,0,2.2,1,2.2,2.2
		c0,1.2-1,2.2-2.2,2.2C47.7,31.5,46.8,30.5,46.8,29.3z M0.1,35.9c0-1.2,1-2.2,2.2-2.2s2.2,1,2.2,2.2s-1,2.2-2.2,2.2
		S0.1,37.2,0.1,35.9z M6.8,35.9c0-1.2,1-2.2,2.2-2.2s2.2,1,2.2,2.2s-1,2.2-2.2,2.2S6.8,37.2,6.8,35.9z M46.8,35.9
		c0-1.2,1-2.2,2.2-2.2c1.2,0,2.2,1,2.2,2.2s-1,2.2-2.2,2.2C47.7,38.1,46.8,37.2,46.8,35.9z M0.1,42.6c0-1.2,1-2.2,2.2-2.2
		s2.2,1,2.2,2.2s-1,2.2-2.2,2.2S0.1,43.8,0.1,42.6z M6.8,42.6c0-1.2,1-2.2,2.2-2.2s2.2,1,2.2,2.2s-1,2.2-2.2,2.2S6.8,43.8,6.8,42.6z
		 M46.8,42.6c0-1.2,1-2.2,2.2-2.2c1.2,0,2.2,1,2.2,2.2s-1,2.2-2.2,2.2C47.7,44.8,46.8,43.8,46.8,42.6z M0.1,49.2
		c0-1.2,1-2.2,2.2-2.2s2.2,1,2.2,2.2s-1,2.2-2.2,2.2S0.1,50.5,0.1,49.2z M6.8,49.2C6.8,48,7.8,47,9,47s2.2,1,2.2,2.2s-1,2.2-2.2,2.2
		S6.8,50.5,6.8,49.2z M13.4,49.2c0-1.2,1-2.2,2.2-2.2s2.2,1,2.2,2.2s-1,2.2-2.2,2.2S13.4,50.5,13.4,49.2z M20.1,49.2
		c0-1.2,1-2.2,2.2-2.2s2.2,1,2.2,2.2s-1,2.2-2.2,2.2S20.1,50.5,20.1,49.2z M33.4,49.2c0-1.2,1-2.2,2.2-2.2s2.2,1,2.2,2.2
		s-1,2.2-2.2,2.2S33.4,50.5,33.4,49.2z M40.1,49.2c0-1.2,1-2.2,2.2-2.2c1.2,0,2.2,1,2.2,2.2s-1,2.2-2.2,2.2
		C41.1,51.5,40.1,50.5,40.1,49.2z M46.8,49.2c0-1.2,1-2.2,2.2-2.2c1.2,0,2.2,1,2.2,2.2s-1,2.2-2.2,2.2
		C47.7,51.5,46.8,50.5,46.8,49.2z M53.4,49.2c0-1.2,1-2.2,2.2-2.2s2.2,1,2.2,2.2s-1,2.2-2.2,2.2S53.4,50.5,53.4,49.2z M0.1,55.9
		c0-1.2,1-2.2,2.2-2.2s2.2,1,2.2,2.2c0,1.2-1,2.2-2.2,2.2S0.1,57.1,0.1,55.9z M6.8,55.9c0-1.2,1-2.2,2.2-2.2s2.2,1,2.2,2.2
		c0,1.2-1,2.2-2.2,2.2S6.8,57.1,6.8,55.9z M13.4,55.9c0-1.2,1-2.2,2.2-2.2s2.2,1,2.2,2.2c0,1.2-1,2.2-2.2,2.2S13.4,57.1,13.4,55.9z
		 M20.1,55.9c0-1.2,1-2.2,2.2-2.2s2.2,1,2.2,2.2c0,1.2-1,2.2-2.2,2.2S20.1,57.1,20.1,55.9z M26.8,55.9c0-1.2,1-2.2,2.2-2.2
		c1.2,0,2.2,1,2.2,2.2c0,1.2-1,2.2-2.2,2.2C27.8,58.1,26.8,57.1,26.8,55.9z M33.4,55.9c0-1.2,1-2.2,2.2-2.2s2.2,1,2.2,2.2
		c0,1.2-1,2.2-2.2,2.2S33.4,57.1,33.4,55.9z M40.1,55.9c0-1.2,1-2.2,2.2-2.2c1.2,0,2.2,1,2.2,2.2c0,1.2-1,2.2-2.2,2.2
		C41.1,58.1,40.1,57.1,40.1,55.9z M46.8,55.9c0-1.2,1-2.2,2.2-2.2c1.2,0,2.2,1,2.2,2.2c0,1.2-1,2.2-2.2,2.2
		C47.7,58.1,46.8,57.1,46.8,55.9z M53.4,55.9c0-1.2,1-2.2,2.2-2.2s2.2,1,2.2,2.2c0,1.2-1,2.2-2.2,2.2S53.4,57.1,53.4,55.9z
		 M6.8,15.9c0-1.2,1-2.2,2.2-2.2s2.2,1,2.2,2.2s-1,2.2-2.2,2.2S6.8,17.2,6.8,15.9z M46.8,15.9c0-1.2,1-2.2,2.2-2.2
		c1.2,0,2.2,1,2.2,2.2s-1,2.2-2.2,2.2C47.7,18.2,46.8,17.2,46.8,15.9z M0.1,2.6c0-1.2,1-2.2,2.2-2.2s2.2,1,2.2,2.2s-1,2.2-2.2,2.2
		S0.1,3.8,0.1,2.6z M164.2,44.7c-1.1,0-2.1-1-2.1-2.1v-21h-9.7v21c0,1.1-1,2.1-2.1,2.1h-4.7c-1.1,0-2.1-1-2.1-2.1V15.8
		c0-1.1,1-2.1,2.1-2.1h23.2c1.1,0,2.1,1,2.1,2.1v26.8c0,1.1-1,2.1-2.1,2.1H164.2z M124.9,25.1l7.1-10.4c0.2-0.3,1.4-0.9,1.7-0.9h5.6
		c5.1,0,0.8,4.5-6.9,15.2l9.3,12.4c1.3,1.7,0.4,3.3-1.7,3.3h-5.8c-0.3,0-1.5-0.6-1.7-0.9l-7.8-10.9h-1.8v9.7c0,1.1-1,2.1-2.1,2.1
		h-4.7c-1.1,0-2.1-1-2.1-2.1V15.8c0-1.1,1-2.1,2.1-2.1h4.7c1.1,0,2.1,1,2.1,2.1v9.2H124.9z M101.3,15.8c0-1.1,1-2.1,2.1-2.1h4.7
		c1.1,0,2.1,1,2.1,2.1v21h0.4c1.1,0,2.1,1,2.1,2.1v10.5c0,1.1-1,2.1-2.1,2.1h-4.3c-1.1,0-2.1-1-2.1-2.1v-4.8H84.8
		c-1.1,0-2.1-1-2.1-2.1V15.8c0-1.1,1-2.1,2.1-2.1h4.7c1.1,0,2.1,1,2.1,2.1v21h9.7V15.8z M67.8,25.8c2.1,0.1,3.1-0.1,3.1-2.5
		c0.1-1.7-0.4-2.2-2.1-2.2h-6.3v4.6H67.8z M68.1,37.3c2.1,0,3.3-0.3,3.3-2.7c0-2.3-1-2.5-3.1-2.4h-5.8v5.1H68.1z"/>
	<path fill="#FFFFFF" d="M61.4,51.2v-1h0.9c0.3,0,0.6,0,0.8-0.1c0.2-0.1,0.3-0.2,0.4-0.4c0.1-0.2,0.1-0.5,0.1-0.8
		c0-0.5-0.1-0.8-0.3-1.1c-0.2-0.2-0.5-0.3-1-0.3h-1.9v3.8H61.4z M134.7,51.2v-1h0.9c0.3,0,0.6,0,0.8-0.1c0.2-0.1,0.3-0.2,0.4-0.4
		c0.1-0.2,0.1-0.5,0.1-0.8c0-0.5-0.1-0.8-0.3-1.1c-0.2-0.2-0.5-0.3-1-0.3h-1.9v3.8H134.7z M134.7,49.4v-1.1h0.7c0.2,0,0.3,0,0.4,0.1
		c0.1,0.1,0.1,0.2,0.1,0.4c0,0.2,0,0.4-0.1,0.4c-0.1,0.1-0.2,0.1-0.4,0.1H134.7z M131.2,48.3h1v-0.9h-3v0.9h1v2.9h1V48.3z M128,47.5
		h-1v1.4h-1.3v-1.4h-1v3.8h1v-1.5h1.3v1.5h1V47.5z M121.5,48.3h1.7v-0.8h-2.7v3.8h2.8v-0.8h-1.7v-0.7h1.6V49h-1.6V48.3z M116.5,50.4
		v-2.9h-1v3.8h2.7v0.9h0.9v-1.7h-0.3v-2.9h-1v2.9H116.5z M98.5,47.5v3.8h1.4l1.1-2.5h0v2.5h0.9v-3.8h-1.3L99.5,50h0v-2.5H98.5z
		 M99.7,46.4h-0.4c0,0.2,0,0.4,0.1,0.5c0.1,0.1,0.2,0.2,0.3,0.2c0.1,0,0.3,0.1,0.5,0.1c0.2,0,0.3,0,0.5-0.1c0.1,0,0.2-0.1,0.3-0.2
		c0.1-0.1,0.1-0.3,0.1-0.5h-0.4c0,0.1,0,0.2-0.1,0.3s-0.2,0.1-0.3,0.1c-0.2,0-0.3,0-0.4-0.1S99.7,46.5,99.7,46.4z M93.3,47.5v1.4
		h0.9c0.4,0,0.7,0.1,0.9,0.3c0.2,0.2,0.3,0.5,0.3,0.9s-0.1,0.7-0.3,0.9c-0.2,0.2-0.5,0.3-0.9,0.3h-1.9v-3.8H93.3z M93.3,49.7v0.8H94
		c0.1,0,0.2,0,0.3-0.1c0.1-0.1,0.1-0.1,0.1-0.3c0-0.2,0-0.3-0.1-0.3c-0.1-0.1-0.2-0.1-0.3-0.1H93.3z M96.9,47.5h-1v3.8h1V47.5z
		 M90.7,47.5h-1v1.4h-1.3v-1.4h-1v3.8h1v-1.5h1.3v1.5h1V47.5z M84.8,48.3h1v-0.9h-3v0.9h1v2.9h1V48.3z M80,48.3h1.7v-0.8H79v3.8h2.8
		v-0.8H80v-0.7h1.6V49H80V48.3z M76.4,47.5v1.4c-0.1,0-0.2,0-0.3,0.1s-0.2,0-0.3,0c-0.2,0-0.4,0-0.5-0.1c-0.1-0.1-0.1-0.2-0.1-0.4
		v-0.9h-1v1.1c0,0.4,0.1,0.8,0.3,1c0.2,0.2,0.6,0.3,1.1,0.3c0.1,0,0.3,0,0.4,0c0.2,0,0.3,0,0.4-0.1v1.5h1v-3.8H76.4z M71.9,49.8v0.1
		c0,0.2-0.1,0.3-0.2,0.4c-0.1,0.1-0.3,0.1-0.5,0.1c-0.2,0-0.3,0-0.4-0.1c-0.1-0.1-0.1-0.1-0.2-0.3c0-0.1,0-0.3,0-0.4V49
		c0-0.2,0-0.3,0-0.4c0-0.1,0.1-0.2,0.2-0.2c0.1,0,0.2-0.1,0.4-0.1c0.2,0,0.3,0,0.4,0.1c0.1,0,0.2,0.1,0.2,0.3v0.2h1v-0.2
		c0-0.3-0.1-0.6-0.2-0.7c-0.1-0.2-0.3-0.3-0.5-0.4c-0.2-0.1-0.5-0.1-0.8-0.1c-0.4,0-0.7,0-1,0.1c-0.3,0.1-0.5,0.2-0.6,0.4
		c-0.1,0.2-0.2,0.5-0.2,0.9v1c0,0.4,0.1,0.8,0.2,1c0.2,0.2,0.4,0.3,0.6,0.4c0.3,0,0.6,0.1,0.9,0.1c0.2,0,0.4,0,0.6,0
		c0.2,0,0.4-0.1,0.6-0.2c0.2-0.1,0.3-0.3,0.3-0.5c0-0.2,0.1-0.4,0-0.6v-0.1H71.9z M67.1,50.6l0.2,0.6h1l-1.1-3.8h-1.5l-1.1,3.8h1.1
		l0.2-0.6H67.1z M66.9,49.9H66l0.5-1.6l0,0L66.9,49.9z M61.4,49.4v-1.1h0.7c0.2,0,0.3,0,0.4,0.1c0.1,0.1,0.1,0.2,0.1,0.4
		c0,0.2,0,0.4-0.1,0.4c-0.1,0.1-0.2,0.1-0.4,0.1H61.4z"/>
</g>
</svg>
