<?xml version="1.0" encoding="utf-8"?>
<!-- Generator: Adobe Illustrator 21.0.2, SVG Export Plug-In . SVG Version: 6.00 Build 0)  -->
<svg version="1.1" id="Layer_1" xmlns="http://www.w3.org/2000/svg" xmlns:xlink="http://www.w3.org/1999/xlink" x="0px" y="0px"
	 viewBox="0 0 312.3 157.7" style="enable-background:new 0 0 312.3 157.7;" xml:space="preserve">
<style type="text/css">
	.st0{fill:#E58F38;}
	.st1{fill:#FFFFFF;}
</style>
<polygon class="st0" points="124.9,51.6 142.8,30.2 160.7,51.6 186.1,51.6 142.8,0 99.5,51.6 "/>
<polygon class="st0" points="312.3,86.2 288.1,86.2 288.1,62 267.3,62 267.3,86.2 243,86.2 243,107 267.3,107 267.3,131.3
	288.1,131.3 288.1,107 312.3,107 "/>
<g>
	<polygon class="st1" points="116.3,62 90.9,62 70.2,86.7 70.2,62 49.4,62 49.4,86.7 28.6,62 3.3,62 32.4,96.6 3.3,131.3 
		28.6,131.3 49.4,106.6 49.4,131.3 70.2,131.3 70.2,106.6 90.9,131.3 116.3,131.3 87.2,96.6 	"/>
	<path class="st1" d="M252.8,62h-25.3l-16.4,19.6L194.6,62h-36.8l-20.8,24.7V62h-20.8v69.3h20.8v-24.7l20.8,24.7h36.8l16.4-19.6
		l16.4,19.6h25.3l-29.1-34.7L252.8,62z M176.2,123l-22.2-26.4l22.2-26.4l22.2,26.4L176.2,123z"/>
</g>
<g>
	<path class="st1" d="M3.4,153.8c-1-0.6-1.9-1.5-2.5-2.6c-0.6-1.1-0.9-2.3-0.9-3.6c0-1.3,0.3-2.5,0.9-3.6c0.6-1.1,1.4-1.9,2.5-2.6
		c1-0.6,2.2-0.9,3.5-0.9c0.9,0,1.7,0.1,2.3,0.4c0.7,0.2,1.3,0.6,2,1.2c0.1,0.1,0.2,0.2,0.3,0.3c0,0.1,0.1,0.2,0.1,0.4
		c0,0.2-0.1,0.4-0.3,0.6c-0.2,0.2-0.4,0.2-0.6,0.2c-0.2,0-0.4-0.1-0.6-0.2c-0.5-0.4-1-0.7-1.4-0.9c-0.5-0.2-1.1-0.3-1.8-0.3
		c-0.9,0-1.8,0.2-2.5,0.7c-0.8,0.5-1.4,1.1-1.8,2c-0.5,0.8-0.7,1.7-0.7,2.7c0,1,0.2,1.9,0.7,2.7c0.5,0.8,1.1,1.5,1.8,2
		c0.8,0.5,1.6,0.7,2.5,0.7c1.1,0,2.2-0.4,3.3-1.2c0.2-0.1,0.4-0.2,0.6-0.2c0.2,0,0.4,0.1,0.6,0.2c0.1,0.2,0.2,0.4,0.2,0.6
		c0,0.2-0.1,0.5-0.3,0.7c-1.3,1-2.7,1.5-4.3,1.5C5.6,154.7,4.4,154.4,3.4,153.8z"/>
	<path class="st1" d="M16.7,154.3c-0.2-0.2-0.3-0.4-0.3-0.7v-12c0-0.3,0.1-0.5,0.3-0.7c0.2-0.2,0.4-0.3,0.7-0.3h8
		c0.3,0,0.5,0.1,0.7,0.2c0.2,0.2,0.2,0.4,0.2,0.6c0,0.2-0.1,0.4-0.2,0.6c-0.2,0.2-0.4,0.2-0.7,0.2h-7.1v4.3h5.1
		c0.3,0,0.5,0.1,0.6,0.2c0.2,0.2,0.3,0.4,0.3,0.6c0,0.2-0.1,0.4-0.3,0.6c-0.2,0.2-0.4,0.2-0.6,0.2h-5.1v4.4h7.1
		c0.3,0,0.5,0.1,0.7,0.2c0.2,0.2,0.2,0.4,0.2,0.6c0,0.3-0.1,0.5-0.2,0.6c-0.2,0.2-0.4,0.2-0.7,0.2h-8
		C17.1,154.6,16.8,154.5,16.7,154.3z"/>
	<path class="st1" d="M31.2,154.3c-0.2-0.2-0.3-0.4-0.3-0.7v-12c0-0.3,0.1-0.5,0.3-0.7c0.2-0.2,0.4-0.3,0.7-0.3h3.5
		c0.9,0,1.7,0.2,2.3,0.6c0.7,0.4,1.2,0.9,1.6,1.6c0.4,0.7,0.6,1.5,0.6,2.4c0,0.9-0.2,1.6-0.6,2.3c-0.4,0.7-0.9,1.2-1.6,1.6
		s-1.5,0.6-2.3,0.6h-2.6v3.9c0,0.3-0.1,0.5-0.3,0.7c-0.2,0.2-0.4,0.3-0.7,0.3C31.6,154.6,31.4,154.5,31.2,154.3z M35.4,148.1
		c0.8,0,1.5-0.3,2-0.8c0.5-0.5,0.8-1.2,0.8-2c0-0.8-0.3-1.5-0.8-2.1c-0.5-0.5-1.2-0.8-2-0.8h-2.6v5.6H35.4z"/>
	<path class="st1" d="M44.6,154.3c-0.2-0.2-0.3-0.4-0.3-0.7v-12c0-0.3,0.1-0.5,0.3-0.7c0.2-0.2,0.4-0.3,0.7-0.3h4.2
		c0.8,0,1.5,0.2,2.1,0.5c0.6,0.3,1.1,0.8,1.4,1.3c0.3,0.6,0.5,1.2,0.5,1.9c0,0.6-0.2,1.1-0.5,1.6c-0.3,0.5-0.7,0.8-1.3,1.1
		c0.8,0.2,1.4,0.6,1.9,1.1s0.7,1.3,0.7,2.2c0,0.8-0.2,1.5-0.6,2.2c-0.4,0.6-0.9,1.1-1.6,1.5c-0.7,0.4-1.5,0.5-2.3,0.5h-4.6
		C45,154.6,44.8,154.5,44.6,154.3z M49.5,146.4c0.7,0,1.3-0.2,1.7-0.5c0.4-0.3,0.6-0.8,0.6-1.5s-0.2-1.1-0.6-1.5
		c-0.4-0.3-1-0.5-1.7-0.5h-3.3v4H49.5z M49.9,152.9c0.8,0,1.5-0.2,2-0.6c0.5-0.4,0.8-1,0.8-1.8c0-0.7-0.3-1.3-0.8-1.7
		c-0.5-0.4-1.2-0.6-2-0.6h-3.7v4.7H49.9z"/>
	<path class="st1" d="M69.8,154.3c-0.2-0.2-0.3-0.4-0.3-0.7v-10l-8.5,10.6c-0.1,0.1-0.2,0.2-0.3,0.2c-0.1,0.1-0.3,0.1-0.4,0.1
		c-0.3,0-0.5-0.1-0.7-0.3c-0.2-0.2-0.3-0.4-0.3-0.7v-12c0-0.3,0.1-0.5,0.3-0.7c0.2-0.2,0.4-0.3,0.7-0.3c0.3,0,0.5,0.1,0.6,0.3
		c0.2,0.2,0.2,0.4,0.2,0.7v10l8.5-10.6c0.1-0.1,0.2-0.2,0.3-0.2c0.1-0.1,0.3-0.1,0.4-0.1c0.3,0,0.5,0.1,0.7,0.3
		c0.2,0.2,0.3,0.4,0.3,0.7v12c0,0.3-0.1,0.5-0.3,0.7c-0.2,0.2-0.4,0.3-0.7,0.3C70.2,154.6,70,154.5,69.8,154.3z"/>
	<path class="st1" d="M79.8,153.8c-1-0.6-1.9-1.5-2.5-2.6c-0.6-1.1-0.9-2.3-0.9-3.6c0-1.3,0.3-2.5,0.9-3.6c0.6-1.1,1.4-1.9,2.5-2.6
		c1-0.6,2.2-0.9,3.5-0.9c0.9,0,1.7,0.1,2.3,0.4c0.7,0.2,1.3,0.6,2,1.2c0.1,0.1,0.2,0.2,0.3,0.3c0,0.1,0.1,0.2,0.1,0.4
		c0,0.2-0.1,0.4-0.3,0.6c-0.2,0.2-0.4,0.2-0.6,0.2c-0.2,0-0.4-0.1-0.6-0.2c-0.5-0.4-1-0.7-1.4-0.9c-0.5-0.2-1.1-0.3-1.8-0.3
		c-0.9,0-1.8,0.2-2.5,0.7c-0.8,0.5-1.4,1.1-1.8,2c-0.5,0.8-0.7,1.7-0.7,2.7c0,1,0.2,1.9,0.7,2.7c0.5,0.8,1.1,1.5,1.8,2
		c0.8,0.5,1.6,0.7,2.5,0.7c1.1,0,2.2-0.4,3.3-1.2c0.2-0.1,0.4-0.2,0.6-0.2c0.2,0,0.4,0.1,0.6,0.2c0.1,0.2,0.2,0.4,0.2,0.6
		c0,0.2-0.1,0.5-0.3,0.7c-1.3,1-2.7,1.5-4.3,1.5C82,154.7,80.8,154.4,79.8,153.8z"/>
	<path class="st1" d="M100,146.6c0.7,0.4,1.2,0.8,1.6,1.5c0.4,0.6,0.6,1.3,0.6,2.1c0,0.8-0.2,1.6-0.6,2.2c-0.4,0.7-0.9,1.2-1.6,1.5
		c-0.7,0.4-1.5,0.6-2.3,0.6h-3.9c-0.3,0-0.5-0.1-0.7-0.3c-0.2-0.2-0.3-0.4-0.3-0.7v-12.1c0-0.2,0.1-0.4,0.3-0.6
		c0.2-0.2,0.4-0.2,0.7-0.2c0.3,0,0.5,0.1,0.7,0.2c0.2,0.2,0.3,0.4,0.3,0.6v4.5h3C98.5,146,99.3,146.2,100,146.6z M99.6,152.2
		c0.5-0.5,0.8-1.1,0.8-2c0-0.9-0.3-1.5-0.8-1.9c-0.5-0.4-1.2-0.6-2-0.6h-3v5.2h3C98.5,152.9,99.1,152.6,99.6,152.2z M104.5,154.3
		c-0.2-0.2-0.3-0.4-0.3-0.7v-12c0-0.3,0.1-0.5,0.3-0.7c0.2-0.2,0.4-0.3,0.7-0.3c0.3,0,0.5,0.1,0.6,0.3c0.2,0.2,0.3,0.4,0.3,0.7v12
		c0,0.3-0.1,0.5-0.3,0.7c-0.2,0.2-0.4,0.3-0.6,0.3C104.9,154.6,104.7,154.5,104.5,154.3z"/>
	<g>
		<path class="st1" d="M131.2,153.2c0.2,0.2,0.3,0.4,0.3,0.7v2.9c0,0.3-0.1,0.5-0.3,0.7c-0.2,0.2-0.4,0.3-0.7,0.3
			c-0.3,0-0.5-0.1-0.7-0.3c-0.2-0.2-0.3-0.4-0.3-0.7v-2.2h-10.6v2.2c0,0.3-0.1,0.5-0.3,0.7c-0.2,0.2-0.4,0.3-0.7,0.3
			c-0.3,0-0.5-0.1-0.7-0.3c-0.2-0.2-0.3-0.4-0.3-0.7v-2.9c0-0.3,0.1-0.5,0.3-0.7c0.2-0.2,0.4-0.3,0.7-0.3h0.5l4.9-11.6
			c0.2-0.4,0.5-0.6,0.9-0.6c0.4,0,0.7,0.2,0.9,0.6l4.9,11.6h0.5C130.8,152.9,131,153,131.2,153.2z M124.3,143.4l-3.9,9.6h7.8
			L124.3,143.4z"/>
		<path class="st1" d="M147,153.7c0,0.2-0.1,0.5-0.3,0.6c-0.2,0.2-0.4,0.3-0.6,0.3c-0.2,0-0.3-0.1-0.5-0.2c-0.2-0.1-0.3-0.2-0.3-0.4
			l-4.1-10.2l-4.3,10.2c-0.1,0.2-0.2,0.3-0.4,0.4c-0.2,0.1-0.3,0.2-0.5,0.2c-0.3,0-0.5-0.1-0.6-0.3c-0.2-0.2-0.3-0.4-0.3-0.6
			c0-0.1,0-0.3,0.1-0.4l5-11.9c0.2-0.4,0.5-0.6,0.9-0.6c0.4,0,0.7,0.2,0.9,0.6l5,11.9C147,153.4,147,153.6,147,153.7z"/>
		<path class="st1" d="M160.7,141c0.2,0.2,0.3,0.4,0.3,0.7v12c0,0.3-0.1,0.5-0.3,0.7c-0.2,0.2-0.4,0.3-0.7,0.3
			c-0.3,0-0.5-0.1-0.7-0.3c-0.2-0.2-0.3-0.4-0.3-0.7v-4.4H156l-3,4.9c-0.2,0.3-0.5,0.4-0.8,0.4c-0.3,0-0.5-0.1-0.6-0.2
			c-0.2-0.2-0.2-0.4-0.2-0.6c0-0.2,0.1-0.4,0.2-0.6l2.7-4.3c-0.9-0.3-1.6-0.7-2.1-1.4c-0.5-0.7-0.8-1.4-0.8-2.3
			c0-0.8,0.2-1.6,0.6-2.2c0.4-0.7,0.9-1.2,1.6-1.6c0.7-0.4,1.5-0.6,2.3-0.6h4.3C160.3,140.7,160.5,140.8,160.7,141z M159.1,142.4
			h-3.3c-0.8,0-1.5,0.2-2,0.7c-0.5,0.5-0.8,1.1-0.8,2c0,0.8,0.3,1.4,0.8,1.9c0.5,0.4,1.2,0.7,2,0.7h3.3V142.4z"/>
		<path class="st1" d="M189.8,153.8c0,0.2-0.1,0.4-0.3,0.5c-0.2,0.2-0.4,0.3-0.7,0.3c-0.1,0-0.3,0-0.4-0.1c-0.1-0.1-0.2-0.1-0.3-0.2
			l-4.5-5.9h-1.8v5.3c0,0.3-0.1,0.5-0.3,0.7c-0.2,0.2-0.4,0.3-0.7,0.3c-0.3,0-0.5-0.1-0.7-0.3c-0.2-0.2-0.3-0.4-0.3-0.7v-5.3h-1.8
			l-4.4,5.9c-0.2,0.2-0.4,0.3-0.7,0.3c-0.3,0-0.5-0.1-0.7-0.3c-0.2-0.2-0.3-0.4-0.3-0.6c0-0.2,0.1-0.4,0.3-0.6l4.3-5.7l-3.8-5.2
			c-0.2-0.2-0.2-0.4-0.2-0.6c0-0.2,0.1-0.4,0.2-0.5c0.2-0.2,0.4-0.3,0.6-0.3c0.3,0,0.5,0.1,0.7,0.3l4.1,5.7h1.7v-5.1
			c0-0.3,0.1-0.5,0.3-0.7c0.2-0.2,0.4-0.3,0.7-0.3c0.3,0,0.5,0.1,0.7,0.3c0.2,0.2,0.3,0.4,0.3,0.7v5.1h1.7l4.2-5.7
			c0.2-0.2,0.4-0.3,0.6-0.3c0.3,0,0.5,0.1,0.7,0.3c0.2,0.2,0.2,0.3,0.2,0.5c0,0.2-0.1,0.4-0.3,0.6l-3.9,5.2l4.3,5.7
			C189.8,153.4,189.8,153.6,189.8,153.8z"/>
		<path class="st1" d="M204.9,154.3c-0.2-0.2-0.3-0.4-0.3-0.7v-10l-8.5,10.6c-0.1,0.1-0.2,0.2-0.3,0.2c-0.1,0.1-0.3,0.1-0.4,0.1
			c-0.3,0-0.5-0.1-0.7-0.3c-0.2-0.2-0.3-0.4-0.3-0.7v-12c0-0.3,0.1-0.5,0.3-0.7c0.2-0.2,0.4-0.3,0.7-0.3c0.3,0,0.5,0.1,0.6,0.3
			c0.2,0.2,0.2,0.4,0.2,0.7v10l8.5-10.6c0.1-0.1,0.2-0.2,0.3-0.2c0.1-0.1,0.3-0.1,0.4-0.1c0.3,0,0.5,0.1,0.7,0.3
			c0.2,0.2,0.3,0.4,0.3,0.7v12c0,0.3-0.1,0.5-0.3,0.7c-0.2,0.2-0.4,0.3-0.7,0.3C205.3,154.6,205.1,154.5,204.9,154.3z"/>
		<path class="st1" d="M220.3,148.3c0.5,0.6,0.8,1.3,0.8,2.3c0,0.8-0.2,1.5-0.6,2.1c-0.4,0.6-1,1.1-1.8,1.5
			c-0.8,0.4-1.6,0.6-2.5,0.6c-1,0-2-0.2-3-0.6c-0.9-0.4-1.6-0.9-1.9-1.5c0-0.2,0-0.4,0-0.5c0-0.3,0.1-0.5,0.3-0.7
			c0.2-0.1,0.3-0.1,0.4-0.1c0.3,0,0.5,0.1,0.7,0.4c0.3,0.4,0.8,0.7,1.4,1c0.6,0.3,1.3,0.4,2,0.4c0.6,0,1.2-0.1,1.6-0.3
			c0.5-0.2,0.9-0.5,1.1-0.9c0.3-0.4,0.4-0.9,0.4-1.4c0-0.7-0.2-1.3-0.7-1.7c-0.5-0.4-1.1-0.7-1.9-0.7h-1.2c-0.2,0-0.4-0.1-0.6-0.2
			c-0.1-0.1-0.2-0.3-0.2-0.6c0-0.2,0.1-0.4,0.2-0.6c0.1-0.2,0.3-0.2,0.6-0.2h0.9c0.6,0,1.2-0.2,1.6-0.6c0.4-0.4,0.6-0.9,0.6-1.6
			c0-0.7-0.2-1.2-0.7-1.6c-0.5-0.3-1.1-0.5-1.9-0.5c-1.2,0-2.2,0.4-2.9,1.3c-0.3,0.4-0.6,0.6-0.9,0.6c-0.1,0-0.3,0-0.4-0.1
			c-0.1-0.1-0.2-0.2-0.3-0.3c-0.1-0.1-0.1-0.3-0.1-0.4c0-0.1,0-0.3,0.1-0.4c0.5-0.7,1.1-1.2,1.8-1.6c0.7-0.4,1.6-0.6,2.6-0.6
			c0.8,0,1.6,0.2,2.3,0.5c0.7,0.3,1.2,0.7,1.6,1.3c0.4,0.5,0.6,1.1,0.6,1.8c0,0.7-0.2,1.3-0.6,1.8c-0.4,0.5-0.9,0.9-1.4,1.2
			C219.1,147.3,219.7,147.7,220.3,148.3z"/>
		<path class="st1" d="M226.3,154.3c-0.2-0.2-0.3-0.4-0.3-0.7v-12c0-0.3,0.1-0.5,0.3-0.7c0.2-0.2,0.4-0.3,0.7-0.3
			c0.3,0,0.5,0.1,0.7,0.3c0.2,0.2,0.3,0.4,0.3,0.7v5.1h8.2v-5.1c0-0.3,0.1-0.5,0.3-0.7c0.2-0.2,0.4-0.3,0.7-0.3
			c0.3,0,0.5,0.1,0.6,0.3c0.2,0.2,0.3,0.4,0.3,0.7v12c0,0.3-0.1,0.5-0.3,0.7c-0.2,0.2-0.4,0.3-0.6,0.3c-0.3,0-0.5-0.1-0.7-0.3
			c-0.2-0.2-0.3-0.4-0.3-0.7v-5.3h-8.2v5.3c0,0.3-0.1,0.5-0.3,0.7c-0.2,0.2-0.4,0.3-0.7,0.3C226.7,154.6,226.5,154.5,226.3,154.3z"
			/>
		<path class="st1" d="M254.1,154.3c-0.2-0.2-0.3-0.4-0.3-0.7v-10l-8.5,10.6c-0.1,0.1-0.2,0.2-0.3,0.2c-0.1,0.1-0.3,0.1-0.4,0.1
			c-0.3,0-0.5-0.1-0.7-0.3c-0.2-0.2-0.3-0.4-0.3-0.7v-12c0-0.3,0.1-0.5,0.3-0.7c0.2-0.2,0.4-0.3,0.7-0.3c0.3,0,0.5,0.1,0.6,0.3
			c0.2,0.2,0.2,0.4,0.2,0.7v10l8.5-10.6c0.1-0.1,0.2-0.2,0.3-0.2c0.1-0.1,0.3-0.1,0.4-0.1c0.3,0,0.5,0.1,0.7,0.3
			c0.2,0.2,0.3,0.4,0.3,0.7v12c0,0.3-0.1,0.5-0.3,0.7c-0.2,0.2-0.4,0.3-0.7,0.3C254.5,154.6,254.2,154.5,254.1,154.3z"/>
	</g>
</g>
</svg>
