<?xml version="1.0" encoding="utf-8"?>
<!-- Generator: Adobe Illustrator 17.1.0, SVG Export Plug-In . SVG Version: 6.00 Build 0)  -->
<!DOCTYPE svg PUBLIC "-//W3C//DTD SVG 1.1//EN" "http://www.w3.org/Graphics/SVG/1.1/DTD/svg11.dtd">
<svg version="1.1" id="Capa_1" xmlns="http://www.w3.org/2000/svg" xmlns:xlink="http://www.w3.org/1999/xlink" x="0px" y="0px"
	 viewBox="184.3 285 27.5 31.4" enable-background="new 184.3 285 27.5 31.4" xml:space="preserve">
<path d="M205.2,296.8H201l-2.9,4.3l-2.9-4.3H191l5,7.4l-5.6,8.3h8v-2.8h-1.9l1.5-2.3l3.4,5.1h4.3l-5.6-8.3L205.2,296.8z
	 M210.1,291.1l-4.4-4.4c-1-1-2.8-1.7-4.2-1.7h-14.7c-1.4,0-2.5,1.1-2.5,2.5V314c0,1.4,1.1,2.5,2.5,2.5h22.6c1.4,0,2.5-1.1,2.5-2.5
	v-18.7C211.8,294,211,292.1,210.1,291.1z M208.7,292.5c0.1,0.1,0.2,0.2,0.3,0.3h-5v-5c0.1,0.1,0.3,0.2,0.3,0.3L208.7,292.5z
	 M209.9,314c0,0.3-0.2,0.5-0.5,0.5h-22.6c-0.3,0-0.5-0.2-0.5-0.5v-26.5c0-0.3,0.2-0.5,0.5-0.5h14.7c0.1,0,0.3,0,0.5,0.1v7.8h7.8
	c0,0.2,0.1,0.3,0.1,0.5V314z"/>
</svg>
