<?xml version="1.0" encoding="utf-8"?>
<!-- Generator: Adobe Illustrator 17.1.0, SVG Export Plug-In . SVG Version: 6.00 Build 0)  -->
<!DOCTYPE svg PUBLIC "-//W3C//DTD SVG 1.1//EN" "http://www.w3.org/Graphics/SVG/1.1/DTD/svg11.dtd">
<svg version="1.1" id="Слой_1" xmlns="http://www.w3.org/2000/svg" xmlns:xlink="http://www.w3.org/1999/xlink" x="0px" y="0px"
	 viewBox="0 0 409.9 410.9" enable-background="new 0 0 409.9 410.9" xml:space="preserve" fill="#29c519">
<g>
	<path clip-path="url(#SVGID_2_)" d="M409.6,25.9c0-6.8-2.7-13.3-7.5-18.1C397.3,3,390.8,0.3,384,0.3S370.7,3,365.9,7.8L174.3,199.4
		l-50.2-5.6c-2.6-0.3-5.1,0.6-7,2.4l-11.7,11.7c-5.1,3.9-56,42.8-100.7,65.2c-2.5,1.2-4.2,3.6-4.6,6.3c-0.4,2.7,0.4,5.5,2.4,7.4
		l19.8,19.8c0,0,0,0,0.1,0L99,383.2c0,0,0,0,0,0l24.2,24.2c1.6,1.6,3.8,2.5,6,2.5c0.5,0,0.9,0,1.4-0.1c2.7-0.4,5-2.1,6.3-4.6
		c22.4-44.8,61.3-95.7,65.2-100.7l11.7-11.7c1.8-1.8,2.7-4.4,2.4-7l-5.6-50.2L402.1,44C406.9,39.2,409.6,32.8,409.6,25.9
		 M110.3,225.7l6.8,6.8c-3.3,3.3-3.3,8.7,0,12.1c1.7,1.7,3.9,2.5,6,2.5c2.2,0,4.4-0.8,6-2.5h0l12.1,12.1c-3.3,3.3-3.3,8.7,0,12.1
		c1.7,1.7,3.8,2.5,6,2.5c2.2,0,4.4-0.8,6-2.5v0l12.1,12.1c-3.3,3.3-3.3,8.7-0.1,12l-61.9-61.9C106.1,228.8,108.4,227.1,110.3,225.7
		 M127,387.1l-11.8-11.8c11-23.3,32.7-53.1,32.9-53.4c2.8-3.8,1.9-9.1-1.9-11.9c-3.8-2.8-9.1-1.9-11.9,1.9
		c-0.9,1.3-19.8,27.2-31.9,50.7L80.9,341L93,329c3.3-3.3,3.3-8.8,0-12.1c-3.3-3.3-8.7-3.3-12.1,0L68.9,329l-25.7-25.7
		c9.9-4.8,24.6-12.6,36.9-21.7c3.8-2.8,4.5-8.2,1.7-11.9c-2.8-3.8-8.2-4.6-11.9-1.7c-13.5,10.1-30.9,18.7-39.5,22.6l-7.5-7.5
		c24.3-13.1,48.8-29.4,66.6-42l79.6,79.6C156.4,338.4,140.1,362.8,127,387.1 M179.1,306.5l-13.7-13.7c1.7,1.6,3.8,2.4,6,2.4
		c2.2,0,4.4-0.8,6-2.5l6.8,6.8C182.8,301.5,181.1,303.8,179.1,306.5 M195.6,286.7l-72.4-72.4l3.1-3.1l47.2,5.3l19.9,19.9l5.3,47.3
		L195.6,286.7z M390,32L201.6,220.4l-12.1-12.1L378,19.9c1.6-1.6,3.8-2.5,6-2.5c2.3,0,4.4,0.9,6,2.5c1.6,1.6,2.5,3.8,2.5,6
		C392.5,28.2,391.6,30.3,390,32"/>
</g>
</svg>
