<?xml version="1.0" encoding="utf-8"?>
<!-- Generator: Adobe Illustrator 17.1.0, SVG Export Plug-In . SVG Version: 6.00 Build 0)  -->
<!DOCTYPE svg PUBLIC "-//W3C//DTD SVG 1.1//EN" "http://www.w3.org/Graphics/SVG/1.1/DTD/svg11.dtd">
<svg version="1.1" id="Слой_1" xmlns="http://www.w3.org/2000/svg" xmlns:xlink="http://www.w3.org/1999/xlink" x="0px" y="0px"
	 viewBox="0 0 40 40" enable-background="new 0 0 40 40" xml:space="preserve" width="40" heght="40">
<g>
	<defs>
		<rect id="SVGID_3_" x="0" width="40" height="40"/>
	</defs>
	<clipPath id="SVGID_1_">
		<use xlink:href="#SVGID_3_"  overflow="visible"/>
	</clipPath>
	<path clip-path="url(#SVGID_1_)" d="M18,1c0-0.6-0.4-1-1-1H1C0.5,0,0,0.4,0,1V17c0,0.6,0.4,1,1,1H17c0.6,0,1-0.4,1-1V1z M2,2h14v14
		H2V2z"/>
	<path clip-path="url(#SVGID_1_)" d="M40,1c0-0.6-0.4-1-1-1H23c-0.6,0-1,0.4-1,1V17c0,0.6,0.4,1,1,1H39c0.6,0,1-0.4,1-1V1z M24,2h14
		v14H24V2z"/>
	<path clip-path="url(#SVGID_1_)" d="M18,23c0-0.6-0.4-1-1-1H1c-0.6,0-1,0.4-1,1V39c0,0.6,0.4,1,1,1H17c0.6,0,1-0.4,1-1V23z M2,24
		h14v14H2V24z"/>
	<path clip-path="url(#SVGID_1_)" d="M40,23c0-0.6-0.4-1-1-1H23c-0.6,0-1,0.4-1,1V39c0,0.6,0.4,1,1,1H39c0.6,0,1-0.4,1-1V23z M24,24
		h14v14H24V24z"/>
	<polygon clip-path="url(#SVGID_1_)" points="8,8 4,8 4,10 8,10 8,14 10,14 10,10 14,10 14,8 10,8 10,4 8,4 	"/>
	<polygon clip-path="url(#SVGID_1_)" points="9,29.6 6.2,26.7 4.8,28.2 7.6,31 4.8,33.8 6.2,35.2 9,32.4 11.8,35.2 13.2,33.8 
		10.4,31 13.2,28.2 11.8,26.7 	"/>
	<rect x="26" y="8" clip-path="url(#SVGID_1_)" width="10" height="2"/>
	<rect x="26" y="30" clip-path="url(#SVGID_1_)" width="10" height="2"/>
	<path clip-path="url(#SVGID_1_)" d="M31,26c0.6,0,1,0.4,1,1c0,0.6-0.4,1-1,1c-0.6,0-1-0.4-1-1C30,26.4,30.4,26,31,26"/>
	<path clip-path="url(#SVGID_1_)" d="M31,34c0.6,0,1,0.4,1,1s-0.4,1-1,1c-0.6,0-1-0.4-1-1S30.4,34,31,34"/>
</g>
</svg>
