<?xml version="1.0" encoding="utf-8"?>
<!-- Generator: Adobe Illustrator 17.1.0, SVG Export Plug-In . SVG Version: 6.00 Build 0)  -->
<!DOCTYPE svg PUBLIC "-//W3C//DTD SVG 1.1//EN" "http://www.w3.org/Graphics/SVG/1.1/DTD/svg11.dtd">
<svg version="1.1" id="Слой_1" xmlns="http://www.w3.org/2000/svg" xmlns:xlink="http://www.w3.org/1999/xlink" x="0px" y="0px"
	 viewBox="0 0 83.3 87.9" enable-background="new 0 0 83.3 87.9" xml:space="preserve">
<g>
	<path clip-path="url(#SVGID_2_)" d="M59.5,69.1c-5.5-6.9-13.9-11-22.8-11c-8.9,0-17.3,4.1-22.8,11C7.3,63,3.1,54.1,3.1,44.3
		c0-18.5,15.1-33.6,33.6-33.6c11.5,0,21.7,5.9,27.8,14.7v-5C57.8,12.6,47.8,7.6,36.7,7.6C16.5,7.6,0,24.1,0,44.3
		c0,11.3,5.2,21.4,13.3,28.1v0.2c6.4,5.2,14.5,8.4,23.4,8.4c8.9,0,17-3.2,23.4-8.4c1.6-1.3,3-2.8,4.4-4.4v-5
		C63,65.4,61.4,67.4,59.5,69.1 M36.7,78c-7.6,0-14.7-2.6-20.3-6.9c4.9-6.3,12.4-9.9,20.3-9.9s15.4,3.7,20.3,9.9
		C51.4,75.4,44.4,78,36.7,78"/>
	<path clip-path="url(#SVGID_2_)" d="M36.7,19.8c0.9,0,1.5-0.6,1.5-1.5v-3.1c0-0.9-0.6-1.5-1.5-1.5c-0.9,0-1.5,0.6-1.5,1.5v3.1
		C35.2,19.2,35.8,19.8,36.7,19.8"/>
	<path clip-path="url(#SVGID_2_)" d="M23.4,18.3c-0.5-0.8-1.4-1.1-2.1-0.6c-0.8,0.5-1.1,1.4-0.6,2.1l1.5,2.6
		c0.3,0.5,0.9,0.8,1.4,0.8c0.3,0,0.5-0.2,0.8-0.2c0.8-0.5,1.1-1.4,0.6-2.1L23.4,18.3z"/>
	<path clip-path="url(#SVGID_2_)" d="M14.5,29.6l-2.6-1.5c-0.8-0.3-1.8-0.2-2.1,0.6s-0.2,1.7,0.6,2.1l2.6,1.5
		c0.3,0.2,0.5,0.2,0.8,0.2c0.6,0,1.1-0.2,1.4-0.8C15.4,31,15.3,30.1,14.5,29.6"/>
	<path clip-path="url(#SVGID_2_)" d="M10.7,42.8H7.6c-0.9,0-1.5,0.6-1.5,1.5c0,0.9,0.6,1.5,1.5,1.5h3.1c0.9,0,1.5-0.6,1.5-1.5
		C12.2,43.4,11.6,42.8,10.7,42.8"/>
	<path clip-path="url(#SVGID_2_)" d="M62.7,42.8c-0.9,0-1.5,0.6-1.5,1.5c0,0.9,0.6,1.5,1.5,1.5h1.8v-3.1H62.7z"/>
	<path clip-path="url(#SVGID_2_)" d="M57.7,31.9c0.3,0.5,0.9,0.8,1.4,0.8c0.3,0,0.6-0.2,0.8-0.2l2.6-1.5c0.8-0.5,1.1-1.4,0.6-2.1
		c-0.5-0.8-1.4-1.1-2.1-0.6l-2.6,1.5C57.5,30.2,57.2,31.2,57.7,31.9"/>
	<path clip-path="url(#SVGID_2_)" d="M48.6,22.9c0.3,0.2,0.5,0.2,0.8,0.2c0.5,0,0.9-0.3,1.4-0.8l1.5-2.6c0.3-0.8,0.2-1.7-0.6-2.1
		c-0.8-0.3-1.7-0.2-2.1,0.6L48,20.8C47.7,21.5,47.9,22.4,48.6,22.9"/>
	<path clip-path="url(#SVGID_2_)" d="M51.8,33.6l-11.5,6.6c-0.9-0.8-2.1-1.4-3.5-1.4c-3.1,0-5.5,2.4-5.5,5.5c0,3.1,2.4,5.5,5.5,5.5
		c3.1,0,5.5-2.4,5.5-5.5c0-0.6-0.2-1.1-0.3-1.5l11.3-6.6c0.8-0.3,1.1-1.2,0.6-2C53.5,33.5,52.6,33.3,51.8,33.6 M36.9,46.9
		c-1.4,0-2.4-1.1-2.4-2.4c0-1.4,1.1-2.4,2.4-2.4c1.4,0,2.4,1.1,2.4,2.4C39.3,45.8,38.2,46.9,36.9,46.9"/>
	
		<rect x="64.5" y="1.5" clip-path="url(#SVGID_2_)" fill="none"  stroke-width="3" stroke-linecap="round" stroke-linejoin="round" stroke-miterlimit="10" width="17.3" height="84.9"/>
	
		<line clip-path="url(#SVGID_2_)" fill="none"  stroke-width="3" stroke-linecap="round" stroke-linejoin="round" stroke-miterlimit="10" x1="64.5" y1="12.9" x2="71" y2="12.9"/>
	
		<line clip-path="url(#SVGID_2_)" fill="none"  stroke-width="3" stroke-linecap="round" stroke-linejoin="round" stroke-miterlimit="10" x1="64.5" y1="23.3" x2="68.2" y2="23.3"/>
	
		<line clip-path="url(#SVGID_2_)" fill="none"  stroke-width="3" stroke-linecap="round" stroke-linejoin="round" stroke-miterlimit="10" x1="64.5" y1="44.3" x2="68.2" y2="44.3"/>
	
		<line clip-path="url(#SVGID_2_)" fill="none"  stroke-width="3" stroke-linecap="round" stroke-linejoin="round" stroke-miterlimit="10" x1="64.5" y1="65.3" x2="68.2" y2="65.3"/>
	
		<line clip-path="url(#SVGID_2_)" fill="none"  stroke-width="3" stroke-linecap="round" stroke-linejoin="round" stroke-miterlimit="10" x1="64.5" y1="33.8" x2="71" y2="33.8"/>
	
		<line clip-path="url(#SVGID_2_)" fill="none"  stroke-width="3" stroke-linecap="round" stroke-linejoin="round" stroke-miterlimit="10" x1="64.5" y1="54.8" x2="71" y2="54.8"/>
	
		<line clip-path="url(#SVGID_2_)" fill="none"  stroke-width="3" stroke-linecap="round" stroke-linejoin="round" stroke-miterlimit="10" x1="64.5" y1="75.8" x2="71" y2="75.8"/>
</g>
</svg>
