<?xml version="1.0" encoding="utf-8"?>
<!-- Generator: Adobe Illustrator 21.0.2, SVG Export Plug-In . SVG Version: 6.00 Build 0)  -->
<svg version="1.1" id="Layer_1" xmlns="http://www.w3.org/2000/svg" xmlns:xlink="http://www.w3.org/1999/xlink" x="0px" y="0px"
	 viewBox="233.8 -309.2 442.4 508" style="enable-background:new 233.8 -309.2 442.4 508;" xml:space="preserve">
<g>
	<g>
		<g>
			<path d="M356.7-14.2h-98.3c-4.5,0-8.2-3.7-8.2-8.2v-98.3c0-58.7,47.8-106.5,106.5-106.5h155.7c4.5,0,8.2,3.7,8.2,8.2v98.3
				c0,4.5-3.7,8.2-8.2,8.2H373.1c-4.5,0-8.2,3.7-8.2,8.2v81.9C364.9-17.9,361.2-14.2,356.7-14.2z M266.6-30.6h81.9v-73.7
				c0-13.6,11-24.6,24.6-24.6h131.1v-81.9H356.7c-49.7,0-90.1,40.4-90.1,90.1V-30.6z"/>
		</g>
	</g>
	<g>
		<g>
			<path d="M561.5-96.2h-49.2c-4.5,0-8.2-3.7-8.2-8.2v-131.1c0-4.5,3.7-8.2,8.2-8.2h49.2c4.5,0,8.2,3.7,8.2,8.2v131.1
				C569.7-99.8,566-96.2,561.5-96.2z M520.5-112.6h32.8v-114.7h-32.8V-112.6z"/>
		</g>
	</g>
	<g>
		<g>
			<path d="M668-112.6H561.5c-4.5,0-8.2-3.7-8.2-8.2v-98.3c0-4.5,3.7-8.2,8.2-8.2H668c4.5,0,8.2,3.7,8.2,8.2v98.3
				C676.2-116.2,672.6-112.6,668-112.6z M569.7-128.9h90.1v-81.9h-90.1V-128.9z"/>
		</g>
	</g>
	<g>
		<g>
			<path d="M553.3-227.3h-32.8c-4.5,0-8.2-3.7-8.2-8.2V-301c0-4.5,3.7-8.2,8.2-8.2h32.8c4.5,0,8.2,3.7,8.2,8.2v65.5
				C561.5-230.9,557.8-227.3,553.3-227.3z M528.7-243.6h16.4v-49.2h-16.4V-243.6z"/>
		</g>
	</g>
	<g>
		<g>
			<path d="M630.9-243.6c-1.7,0-3.3-0.2-5-0.5l-74.1-14.6c-3.8-0.8-6.6-4.1-6.6-8v-19.4c0-3.9,2.8-7.3,6.6-8l74.1-14.6
				c18-3.5,34,12.3,34,32.3C659.8-258.3,646.8-243.6,630.9-243.6z M561.5-273.5l67.5,13.3c7.6,1.5,14.5-6.5,14.5-16.2
				c0-9.7-6.8-17.8-14.5-16.2l-67.5,13.3V-273.5z"/>
		</g>
	</g>
	<g>
		<g>
			<path d="M443-243.6c-16,0-29-14.7-29-32.8c0-19.9,16-35.8,34-32.3l74.1,14.6c3.8,0.8,6.6,4.1,6.6,8v19.3c0,3.9-2.8,7.3-6.6,8
				L448-244.2C446.4-243.8,444.7-243.6,443-243.6z M443-292.8c-6.8,0-12.6,7.5-12.6,16.4c0,9.7,6.9,17.7,14.5,16.2l67.5-13.3v-5.9
				l-67.5-13.3C444.3-292.7,443.6-292.8,443-292.8z"/>
		</g>
	</g>
	<g>
		<g>
			<path d="M373.1,18.5H242c-4.5,0-8.2-3.7-8.2-8.2v-32.8c0-4.5,3.7-8.2,8.2-8.2h131.1c4.5,0,8.2,3.7,8.2,8.2v32.8
				C381.3,14.9,377.6,18.5,373.1,18.5z M250.2,2.2h114.7v-16.4H250.2V2.2z"/>
		</g>
	</g>
	<g>
		<g>
			<path d="M299.3,198.8c-36.1,0-65.5-29.4-65.5-65.5c0-34,53.6-89.6,59.7-95.9c3.1-3.1,8.6-3.1,11.7,0c6.1,6.2,59.7,61.8,59.7,95.9
				C364.9,169.4,335.5,198.8,299.3,198.8z M299.3,55c-17.7,19.2-49.2,57.6-49.2,78.2c0,27.1,22.1,49.2,49.2,49.2
				c27.1,0,49.2-22.1,49.2-49.2C348.5,112.6,317,74.2,299.3,55z"/>
		</g>
	</g>
</g>
</svg>
