<?xml version="1.0" encoding="utf-8"?>
<!-- Generator: Adobe Illustrator 17.1.0, SVG Export Plug-In . SVG Version: 6.00 Build 0)  -->
<!DOCTYPE svg PUBLIC "-//W3C//DTD SVG 1.1//EN" "http://www.w3.org/Graphics/SVG/1.1/DTD/svg11.dtd">
<svg version="1.1" xmlns="http://www.w3.org/2000/svg" xmlns:xlink="http://www.w3.org/1999/xlink" x="0px" y="0px"
	 viewBox="0 0 15.6 15.6" enable-background="new 0 0 15.6 15.6" xml:space="preserve">
<g transform="translate(0,-952.36218)">
	<path d="M6.8,952.4c-0.8,0-1.5,0.4-2,0.9c-0.4,0.5-0.6,1.1-0.6,1.7c0,0.9,0.4,1.6,0.9,2.3c0.2,0.4,0.5,0.8,0.7,1.2
		c-0.4,1.2-0.9,2.6-1.4,3.7c-0.6,0.1-1.2,0.3-1.9,0.5c-0.6,0.2-1.2,0.5-1.7,1c-0.5,0.5-0.8,1.2-0.8,2c0,0.5,0.2,1.1,0.6,1.5
		c0.4,0.4,1,0.8,1.7,0.8c1.5,0,2.5-1,3.2-2.1c0.5-0.7,0.8-1.4,1-2c1-0.3,2.1-0.6,3.1-0.9c0.8,0.8,1.9,1.7,3.4,1.7
		c1.6,0,2.6-1.3,2.6-2.4c0-0.6-0.2-1.2-0.7-1.7c-0.5-0.5-1.2-0.8-1.9-0.8c-0.9,0-1.7,0.3-2.5,0.6c-0.7-0.7-1.4-1.7-2-2.5
		c0.1-0.3,0.2-0.6,0.4-0.9c0.3-0.7,0.5-1.3,0.5-2.1c0-0.6-0.2-1.1-0.6-1.7C8.4,952.8,7.7,952.4,6.8,952.4z M6.8,954.3
		c0.3,0,0.4,0.1,0.5,0.2c0.1,0.1,0.2,0.4,0.2,0.4c0,0.1-0.1,0.7-0.4,1.3c0,0.1-0.1,0.2-0.1,0.3c-0.1-0.1-0.1-0.2-0.2-0.4
		c-0.4-0.6-0.6-1.2-0.6-1.2c0-0.1,0.1-0.3,0.2-0.5C6.4,954.4,6.6,954.3,6.8,954.3z M7.4,959.7c0.4,0.6,0.8,1,1.2,1.5
		c-0.7,0.2-1.3,0.3-2,0.6C6.9,961.1,7.2,960.4,7.4,959.7z M13,961.8c0.3,0,0.4,0.1,0.5,0.2s0.1,0.2,0.1,0.4c0,0.1,0,0.5-0.6,0.5
		c-0.3,0-0.8-0.3-1.3-0.6C12.2,961.9,12.7,961.8,13,961.8z M4.2,964.2c-0.1,0.2-0.2,0.4-0.3,0.6c-0.5,0.8-1.1,1.2-1.6,1.2
		c-0.2,0-0.2,0-0.2-0.1c0,0-0.1-0.1-0.1-0.2c0-0.3,0.1-0.5,0.3-0.6c0.2-0.2,0.5-0.4,1-0.5C3.5,964.4,3.8,964.3,4.2,964.2z"/>
</g>
</svg>
