<?xml version="1.0" encoding="utf-8"?>
<!-- Generator: Adobe Illustrator 17.1.0, SVG Export Plug-In . SVG Version: 6.00 Build 0)  -->
<!DOCTYPE svg PUBLIC "-//W3C//DTD SVG 1.1//EN" "http://www.w3.org/Graphics/SVG/1.1/DTD/svg11.dtd">
<svg version="1.1" id="Layer_1" xmlns="http://www.w3.org/2000/svg" xmlns:xlink="http://www.w3.org/1999/xlink" x="0px" y="0px"
	 viewBox="0 0 64.9 63" enable-background="new 0 0 64.9 63" xml:space="preserve">
<g>
	<path fill="none"  stroke-width="3" stroke-linecap="round" stroke-linejoin="round" stroke-miterlimit="10" d="
		M49.1,47.7c-6.6,0-14-6.4-14-14.6C34.9,20.2,45.5,19.7,45.8,1.5c0,0,4.3,4,4.9,8.6c0.7,5.4-0.9,11.8-0.9,11.8
		c3.8-0.1,6.5-6.1,5.9-9c3.7,5.8,5.3,13,1.3,20.2c2.4-0.1,4.5-1.3,6.4-3.2C63.4,39.5,58.4,47.7,49.1,47.7z"/>
	
		<polyline fill="none"  stroke-width="3" stroke-linecap="round" stroke-linejoin="round" stroke-miterlimit="10" points="
		1.5,35 23.9,15.7 32,23.4 	"/>
	
		<polyline fill="none"  stroke-width="3" stroke-linecap="round" stroke-linejoin="round" stroke-miterlimit="10" points="
		6.2,32 6.6,61.5 19.8,61.5 19.8,45.7 28,45.7 28,61.5 41.2,61.5 41.2,52 	"/>
</g>
</svg>
