<?xml version="1.0" encoding="utf-8"?>
<!-- Generator: Adobe Illustrator 17.1.0, SVG Export Plug-In . SVG Version: 6.00 Build 0)  -->
<!DOCTYPE svg PUBLIC "-//W3C//DTD SVG 1.1//EN" "http://www.w3.org/Graphics/SVG/1.1/DTD/svg11.dtd">
<svg version="1.1" id="Layer_1" xmlns="http://www.w3.org/2000/svg" xmlns:xlink="http://www.w3.org/1999/xlink" x="0px" y="0px"
	 viewBox="0 0 64.4 53" enable-background="new 0 0 64.4 53" xml:space="preserve">
<g>
	
		<polygon fill="none" stroke-width="3" stroke-linecap="round" stroke-linejoin="round" stroke-miterlimit="10" points="
		62.9,5.9 40.1,28.7 28.1,36.4 35.7,24.3 58.5,1.5"/>
	
		<line fill="none"  stroke-width="3" stroke-linecap="round" stroke-linejoin="round" stroke-miterlimit="10" x1="28" y1="36.4" x2="24.5" y2="39.9"/>
	<path fill="none"  stroke-width="3" stroke-linecap="round" stroke-linejoin="round" stroke-miterlimit="10" d="
		M24.4,40.1c0,0-6.7,4-7.5,4.8c-0.8,0.8-0.8,2-0.1,2.8c0.7,0.7,2,0.7,2.8-0.1C20.3,46.8,24.4,40.1,24.4,40.1z"/>
	<path fill="none"  stroke-width="3" stroke-linecap="round" stroke-linejoin="round" stroke-miterlimit="10" d="
		M13,51.5c-5.4,0-11.5-6.2-11.5-14.2c-0.1-12.5,10.1-13,10.4-30.7c0,0,4.8,3.9,4.8,8.4s-0.9,8.1-0.9,8.1c2.3-0.4,5.1-2.8,5.8-5.4
		c2,2.6,6.1,8.3,3.3,16.1"/>
</g>
</svg>
