<?xml version="1.0" encoding="utf-8"?>
<!-- Generator: Adobe Illustrator 17.1.0, SVG Export Plug-In . SVG Version: 6.00 Build 0)  -->
<!DOCTYPE svg PUBLIC "-//W3C//DTD SVG 1.1//EN" "http://www.w3.org/Graphics/SVG/1.1/DTD/svg11.dtd">
<svg version="1.1" id="Layer_1" xmlns="http://www.w3.org/2000/svg" xmlns:xlink="http://www.w3.org/1999/xlink" x="0px" y="0px"
	 viewBox="0 0 63 65.5" enable-background="new 0 0 63 65.5" xml:space="preserve">
<g>
	<path fill="none" stroke-width="3" stroke-linecap="round" stroke-linejoin="round" stroke-miterlimit="10" d="
		M33.7,47.9C33.7,34.8,17.6,20,17.6,20S1.5,34.8,1.5,47.9C1.5,56.8,8.7,64,17.6,64S33.7,56.8,33.7,47.9z"/>
	<path fill="none" stroke-width="3" stroke-linecap="round" stroke-linejoin="round" stroke-miterlimit="10" d="
		M12.9,33.7c0,0-6.3,7.3-6.3,13.8"/>
	<path fill="none" stroke-width="3" stroke-linecap="round" stroke-linejoin="round" stroke-miterlimit="10" d="
		M45.5,16.4c0-7-8.6-14.9-8.6-14.9s-8.6,7.9-8.6,14.9c0,4.7,3.8,8.6,8.6,8.6S45.5,21.1,45.5,16.4z"/>
	<path fill="none" stroke-width="3" stroke-linecap="round" stroke-linejoin="round" stroke-miterlimit="10" d="
		M61.5,39.7c0-7-8.6-14.9-8.6-14.9s-8.6,7.9-8.6,14.9c0,4.7,3.8,8.6,8.6,8.6S61.5,44.4,61.5,39.7z"/>
</g>
</svg>
