<?xml version="1.0" encoding="utf-8"?>
<!-- Generator: Adobe Illustrator 17.1.0, SVG Export Plug-In . SVG Version: 6.00 Build 0)  -->
<!DOCTYPE svg PUBLIC "-//W3C//DTD SVG 1.1//EN" "http://www.w3.org/Graphics/SVG/1.1/DTD/svg11.dtd">
<svg version="1.1" id="Layer_1" xmlns="http://www.w3.org/2000/svg" xmlns:xlink="http://www.w3.org/1999/xlink" x="0px" y="0px"
	 viewBox="0 0 63 68" enable-background="new 0 0 63 68" xml:space="preserve">
<g>
	
		<circle fill="none"  stroke-width="3" stroke-linecap="round" stroke-linejoin="round" stroke-miterlimit="10" cx="24.7" cy="43.3" r="23.2"/>
	<path fill="none"  stroke-width="3" stroke-linecap="round" stroke-linejoin="round" stroke-miterlimit="10" d="
		M6.9,43.3c0-9.8,8-17.8,17.8-17.8"/>
	<path fill="none"  stroke-width="3" stroke-linecap="round" stroke-linejoin="round" stroke-miterlimit="10" d="
		M40.6,51.4c-1.6,3.1-4,5.6-7,7.3"/>
	
		<polyline fill="none"  stroke-width="3" stroke-linecap="round" stroke-linejoin="round" stroke-miterlimit="10" points="
		35.7,22.5 40,18.2 49.8,28.1 45.5,32.4 	"/>
	<path fill="none"  stroke-width="3" stroke-linecap="round" stroke-linejoin="round" stroke-miterlimit="10" d="
		M44.5,22.8c4.2-2.5,6.5-6.1,7-10.8"/>
	<g>
		
			<line fill="none"  stroke-width="3" stroke-linecap="round" stroke-linejoin="round" stroke-miterlimit="10" x1="40.6" y1="12" x2="45.2" y2="12"/>
		
			<line fill="none"  stroke-width="3" stroke-linecap="round" stroke-linejoin="round" stroke-miterlimit="10" x1="56.9" y1="12" x2="61.5" y2="12"/>
	</g>
	<g>
		
			<line fill="none"  stroke-width="3" stroke-linecap="round" stroke-linejoin="round" stroke-miterlimit="10" x1="51" y1="1.5" x2="51" y2="6.1"/>
	</g>
	<g>
		
			<line fill="none"  stroke-width="3" stroke-linecap="round" stroke-linejoin="round" stroke-miterlimit="10" x1="55.2" y1="7.8" x2="58.4" y2="4.6"/>
	</g>
	<g>
		
			<line fill="none"  stroke-width="3" stroke-linecap="round" stroke-linejoin="round" stroke-miterlimit="10" x1="43.7" y1="4.6" x2="46.9" y2="7.8"/>
		
			<line fill="none"  stroke-width="3" stroke-linecap="round" stroke-linejoin="round" stroke-miterlimit="10" x1="55.2" y1="16.1" x2="58.4" y2="19.3"/>
	</g>
</g>
</svg>
