<?xml version="1.0" encoding="utf-8"?>
<!-- Generator: Adobe Illustrator 21.1.0, SVG Export Plug-In . SVG Version: 6.00 Build 0)  -->
<svg version="1.1" id="Layer_1" xmlns="http://www.w3.org/2000/svg" xmlns:xlink="http://www.w3.org/1999/xlink" x="0px" y="0px"
	 viewBox="0 0 30 30" style="enable-background:new 0 0 30 30;" xml:space="preserve">
<style type="text/css">
	.st0{fill-rule:evenodd;clip-rule:evenodd;fill:#1F5894;}
	.st1{fill:#FFFFFF;}
	.st2{fill:#DB2031;}
</style>
<path class="st0" fill="#1F5894" d="M3,0h24c1.7,0,3,1.3,3,3v24c0,1.7-1.3,3-3,3H3c-1.7,0-3-1.3-3-3V3C0,1.3,1.3,0,3,0z"/>
<path class="st1" fill="#FFFFFF" d="M5,3c0-0.5,0.4-1,1-1c0.5,0,1,0.4,1,1S6.6,4,6,4C5.5,4,5,3.6,5,3z M8,3c0-0.5,0.4-1,1-1c0.5,0,1,0.4,1,1
	S9.6,4,9,4C8.5,4,8,3.6,8,3z M11,3c0-0.5,0.4-1,1-1c0.5,0,1,0.4,1,1s-0.4,1-1,1C11.4,4,11,3.6,11,3z M14,3c0-0.5,0.4-1,1-1
	s1,0.4,1,1s-0.4,1-1,1S14,3.6,14,3z M17,3c0-0.5,0.4-1,1-1c0.5,0,1,0.4,1,1s-0.4,1-1,1C17.4,4,17,3.6,17,3z M20,3c0-0.5,0.4-1,1-1
	c0.5,0,1,0.4,1,1s-0.4,1-1,1C20.4,4,20,3.6,20,3z M23,3c0-0.5,0.4-1,1-1c0.5,0,1,0.4,1,1s-0.4,1-1,1C23.4,4,23,3.6,23,3z M26,3
	c0-0.5,0.4-1,1-1c0.5,0,1,0.4,1,1s-0.4,1-1,1C26.4,4,26,3.6,26,3z M2,6c0-0.5,0.4-1,1-1s1,0.4,1,1c0,0.5-0.4,1-1,1S2,6.6,2,6z M5,6
	c0-0.5,0.4-1,1-1c0.5,0,1,0.4,1,1c0,0.5-0.4,1-1,1S5,6.6,5,6z M8,6c0-0.5,0.4-1,1-1c0.5,0,1,0.4,1,1c0,0.5-0.4,1-1,1
	C8.5,7,8,6.6,8,6z M11,6c0-0.5,0.4-1,1-1c0.5,0,1,0.4,1,1c0,0.5-0.4,1-1,1C11.4,7,11,6.6,11,6z M14,6c0-0.5,0.4-1,1-1s1,0.4,1,1
	c0,0.5-0.4,1-1,1S14,6.6,14,6z M17,6c0-0.5,0.4-1,1-1c0.5,0,1,0.4,1,1c0,0.5-0.4,1-1,1C17.4,7,17,6.6,17,6z M20,6c0-0.5,0.4-1,1-1
	c0.5,0,1,0.4,1,1c0,0.5-0.4,1-1,1S20,6.6,20,6z M23,6c0-0.5,0.4-1,1-1c0.5,0,1,0.4,1,1c0,0.5-0.4,1-1,1C23.4,7,23,6.6,23,6z M26,6
	c0-0.5,0.4-1,1-1c0.5,0,1,0.4,1,1c0,0.5-0.4,1-1,1S26,6.6,26,6z M2,9c0-0.5,0.4-1,1-1s1,0.4,1,1c0,0.5-0.4,1-1,1S2,9.6,2,9z M2,12
	c0-0.5,0.4-1,1-1s1,0.4,1,1c0,0.5-0.4,1-1,1S2,12.6,2,12z M5,12c0-0.5,0.4-1,1-1c0.5,0,1,0.4,1,1c0,0.5-0.4,1-1,1
	C5.5,13,5,12.6,5,12z M23,12c0-0.5,0.4-1,1-1c0.5,0,1,0.4,1,1c0,0.5-0.4,1-1,1C23.4,13,23,12.6,23,12z M2,15c0-0.5,0.4-1,1-1
	s1,0.4,1,1c0,0.6-0.4,1-1,1S2,15.5,2,15z M5,15c0-0.5,0.4-1,1-1c0.5,0,1,0.4,1,1c0,0.6-0.4,1-1,1S5,15.5,5,15z M23,15
	c0-0.5,0.4-1,1-1c0.5,0,1,0.4,1,1c0,0.6-0.4,1-1,1C23.4,16,23,15.5,23,15z M2,18c0-0.5,0.4-1,1-1s1,0.4,1,1s-0.4,1-1,1S2,18.6,2,18z
	 M5,18c0-0.5,0.4-1,1-1c0.5,0,1,0.4,1,1s-0.4,1-1,1C5.5,19,5,18.6,5,18z M23,18c0-0.5,0.4-1,1-1c0.5,0,1,0.4,1,1s-0.4,1-1,1
	C23.4,19,23,18.6,23,18z M2,21c0-0.5,0.4-1,1-1s1,0.4,1,1c0,0.5-0.4,1-1,1S2,21.5,2,21z M5,21c0-0.5,0.4-1,1-1c0.5,0,1,0.4,1,1
	c0,0.5-0.4,1-1,1S5,21.5,5,21z M23,21c0-0.5,0.4-1,1-1c0.5,0,1,0.4,1,1c0,0.5-0.4,1-1,1C23.4,22,23,21.5,23,21z M2,24
	c0-0.5,0.4-1,1-1s1,0.4,1,1c0,0.5-0.4,1-1,1S2,24.5,2,24z M5,24c0-0.5,0.4-1,1-1c0.5,0,1,0.4,1,1c0,0.5-0.4,1-1,1
	C5.5,25,5,24.5,5,24z M8,24c0-0.5,0.4-1,1-1c0.5,0,1,0.4,1,1c0,0.5-0.4,1-1,1C8.5,25,8,24.5,8,24z M11,24c0-0.5,0.4-1,1-1
	c0.5,0,1,0.4,1,1c0,0.5-0.4,1-1,1C11.4,25,11,24.5,11,24z M17,24c0-0.5,0.4-1,1-1c0.5,0,1,0.4,1,1c0,0.5-0.4,1-1,1
	C17.4,25,17,24.5,17,24z M20,24c0-0.5,0.4-1,1-1c0.5,0,1,0.4,1,1c0,0.5-0.4,1-1,1C20.4,25,20,24.5,20,24z M23,24c0-0.5,0.4-1,1-1
	c0.5,0,1,0.4,1,1c0,0.5-0.4,1-1,1C23.4,25,23,24.5,23,24z M26,24c0-0.5,0.4-1,1-1c0.5,0,1,0.4,1,1c0,0.5-0.4,1-1,1
	C26.4,25,26,24.5,26,24z M2,27c0-0.5,0.4-1,1-1s1,0.4,1,1c0,0.5-0.4,1-1,1S2,27.5,2,27z M5,27c0-0.5,0.4-1,1-1c0.5,0,1,0.4,1,1
	c0,0.5-0.4,1-1,1S5,27.5,5,27z M8,27c0-0.5,0.4-1,1-1c0.5,0,1,0.4,1,1c0,0.5-0.4,1-1,1C8.5,28,8,27.5,8,27z M11,27c0-0.5,0.4-1,1-1
	c0.5,0,1,0.4,1,1c0,0.5-0.4,1-1,1C11.4,28,11,27.5,11,27z M14,27c0-0.5,0.4-1,1-1s1,0.4,1,1c0,0.5-0.4,1-1,1S14,27.5,14,27z M17,27
	c0-0.5,0.4-1,1-1c0.5,0,1,0.4,1,1c0,0.5-0.4,1-1,1C17.4,28,17,27.5,17,27z M20,27c0-0.5,0.4-1,1-1c0.5,0,1,0.4,1,1c0,0.5-0.4,1-1,1
	S20,27.5,20,27z M23,27c0-0.5,0.4-1,1-1c0.5,0,1,0.4,1,1c0,0.5-0.4,1-1,1C23.4,28,23,27.5,23,27z M26,27c0-0.5,0.4-1,1-1
	c0.5,0,1,0.4,1,1c0,0.5-0.4,1-1,1S26,27.5,26,27z M5,9c0-0.5,0.4-1,1-1c0.5,0,1,0.4,1,1c0,0.5-0.4,1-1,1C5.5,10,5,9.6,5,9z M23,9
	c0-0.5,0.4-1,1-1c0.5,0,1,0.4,1,1c0,0.5-0.4,1-1,1C23.4,10,23,9.6,23,9z M26,12c0-0.5,0.4-1,1-1c0.5,0,1,0.4,1,1c0,0.5-0.4,1-1,1
	C26.4,13,26,12.6,26,12z M26,15c0-0.5,0.4-1,1-1c0.5,0,1,0.4,1,1c0,0.6-0.4,1-1,1C26.4,16,26,15.5,26,15z M26,18c0-0.5,0.4-1,1-1
	c0.5,0,1,0.4,1,1s-0.4,1-1,1C26.4,19,26,18.6,26,18z M26,21c0-0.5,0.4-1,1-1c0.5,0,1,0.4,1,1c0,0.5-0.4,1-1,1C26.4,22,26,21.5,26,21
	z M26,9c0-0.5,0.4-1,1-1c0.5,0,1,0.4,1,1c0,0.5-0.4,1-1,1C26.4,10,26,9.6,26,9z M2,3c0-0.5,0.4-1,1-1s1,0.4,1,1S3.6,4,3,4S2,3.6,2,3
	z"/>
<path class="st2" fill="#DB2031" d="M22,19.5c0,1.4-1.1,2.5-2.5,2.5h-0.9c-2,0-3.2,1.8-3.5,2.9c0,0.1-0.1,0.1-0.2,0c-0.3-1.1-1.5-2.9-3.5-2.9h-0.9
	C9.1,22,8,20.9,8,19.5V8.1C8,8.1,8,8,8.1,8h13.8c0,0,0.1,0,0.1,0.1V19.5L22,19.5z"/>
</svg>
