<?xml version="1.0" encoding="utf-8"?>
<!-- Generator: Adobe Illustrator 17.1.0, SVG Export Plug-In . SVG Version: 6.00 Build 0)  -->
<!DOCTYPE svg PUBLIC "-//W3C//DTD SVG 1.1//EN" "http://www.w3.org/Graphics/SVG/1.1/DTD/svg11.dtd">
<svg version="1.1" id="Слой_1" xmlns="http://www.w3.org/2000/svg" xmlns:xlink="http://www.w3.org/1999/xlink" x="0px" y="0px"
	 viewBox="0 0 223.3 162.9" enable-background="new 0 0 223.3 162.9" xml:space="preserve">
<g>
	<g>
		<path d="M221.1,57.7l-75-56.5c-2-1.5-4.7-1.5-6.7,0L127,10.4l-12.3-9.3c-2-1.5-4.8-1.5-6.7,0l-12,9.1l-12-9.1
			c-2-1.5-4.7-1.5-6.7,0l-75,56.5C0.8,58.7,0,60.4,0,62.1v95.2c0,3.1,2.5,5.6,5.6,5.6h212.1c3.1,0,5.6-2.5,5.6-5.6V62.1
			C223.3,60.4,222.5,58.7,221.1,57.7L221.1,57.7z M212.1,151.7h-20.2V62.1c0-1.8-0.8-3.4-2.2-4.5l-53.3-40.2l6.4-4.8l69.4,52.3
			V151.7z M161.1,151.7V62.1c0-1.8-0.8-3.4-2.2-4.5l-53.7-40.5l6.1-4.6l69.4,52.3v86.8H161.1z M89.7,151.7H71.4v-40.6h18.3V151.7z
			 M100.9,151.7v-46.2c0-3.1-2.5-5.6-5.6-5.6H65.8c-3.1,0-5.6,2.5-5.6,5.6v46.2h-49V64.9l69.4-52.3l69.4,52.3v86.8H100.9z
			 M100.9,151.7"/>
	</g>
</g>
</svg>
