<?xml version="1.0" encoding="utf-8"?>
<!-- Generator: Adobe Illustrator 21.0.2, SVG Export Plug-In . SVG Version: 6.00 Build 0)  -->
<svg version="1.1" id="Layer_1" xmlns="http://www.w3.org/2000/svg" xmlns:xlink="http://www.w3.org/1999/xlink" x="0px" y="0px"
	 viewBox="-39 -9.2 30 28" style="enable-background:new -39 -9.2 30 28;" xml:space="preserve">
<g transform="translate(0,-1020.3622)">
	<g transform="translate(275.99997,-37.000012)">
		<g transform="translate(-275.99997,39.000012)">
			<path d="M-19.2,1009.2c-0.1,0-0.3,0.1-0.4,0.2l-1.8,1.8h-15.1c0,0-0.1,0-0.1,0c-1.3,0.1-2.4,1.2-2.4,2.5v0.5v1h4v19v0.5
				c0,1.4,1.1,2.5,2.5,2.5h19c1.4,0,2.5-1.1,2.5-2.5v-0.5v-1h-4v-1h3.5c0.3,0,0.5-0.2,0.5-0.5v-11.5h1.5c0.3,0,0.5-0.2,0.5-0.5
				c0-0.1-0.1-0.3-0.1-0.3l-1.9-1.9c0,0,0,0,0,0v-4.3c0-0.3-0.2-0.5-0.5-0.5h-2c-0.3,0-0.5,0.2-0.5,0.5v1.3l-4.9-5
				C-19,1009.3-19.1,1009.2-19.2,1009.2z M-19.2,1010.4l8.5,8.8h-17.1L-19.2,1010.4z M-36.5,1012.2c0.8,0,1.5,0.7,1.5,1.5v0.5h-3
				v-0.5C-38,1012.9-37.3,1012.2-36.5,1012.2z M-34.5,1012.2h12.2l-7,7.2c-0.2,0.2-0.2,0.5,0,0.7c0.1,0.1,0.2,0.1,0.3,0.1h1.9v11.5
				c0,0.3,0.2,0.5,0.5,0.5H-16v1h-15v1v0.5c0,0.8-0.7,1.5-1.5,1.5s-1.5-0.7-1.5-1.5v-0.5v-20v-0.5
				C-34,1013.1-34.2,1012.6-34.5,1012.2z M-13,1013.6h1v2.8l-1-1V1013.6z M-29,1014.2v1h3v-1H-29z M-32,1017.2v1h3v-1H-32z
				 M-32,1019.2v1h2v-1H-32z M-26,1020.2h14v11h-4.5v-7c0-0.3-0.2-0.5-0.5-0.5h-4c-0.3,0-0.5,0.2-0.5,0.5v7H-26V1020.2z M-32,1021.2
				v1h4v-1H-32z M-32,1023.2v1h4v-1H-32z M-20.5,1024.7h3v6.5h-3V1024.7z M-32,1025.2v1h4v-1H-32z M-32,1027.2v1h4v-1H-32z
				 M-30,1034.2h18v0.5c0,0.8-0.7,1.5-1.5,1.5h-17c0.3-0.4,0.5-0.9,0.5-1.5V1034.2z"/>
		</g>
	</g>
</g>
</svg>
