<?xml version="1.0" encoding="utf-8"?>
<!-- Generator: Adobe Illustrator 17.1.0, SVG Export Plug-In . SVG Version: 6.00 Build 0)  -->
<!DOCTYPE svg PUBLIC "-//W3C//DTD SVG 1.1//EN" "http://www.w3.org/Graphics/SVG/1.1/DTD/svg11.dtd">
<svg version="1.1" xmlns="http://www.w3.org/2000/svg" xmlns:xlink="http://www.w3.org/1999/xlink" x="0px" y="0px"
	 viewBox="70.5 3 39 39.5" enable-background="new 70.5 3 39 39.5" xml:space="preserve">
<g id="">
	<path  stroke="#FFFFFF" stroke-miterlimit="10" stroke-width="5" d="M71,38V14h38v24c0,2.2-1.8,4-4,4H75C72.8,42,71,40.2,71,38"/>
	<path  stroke="#FFFFFF" stroke-miterlimit="10" stroke-width="5" d="M109,10v6H71v-6c0-2.2,1.8-4,4-4h30C107.2,6,109,7.8,109,10"/>
	<g>
		<path  d="M102,10c0,1.7-1.3,3-3,3s-3-1.3-3-3s1.3-3,3-3S102,8.3,102,10"/>
		<path  d="M84,10c0,1.7-1.3,3-3,3s-3-1.3-3-3s1.3-3,3-3S84,8.3,84,10"/>
	</g>
	<g>
		<path fill="#FFFFFF" d="M99,3c-1.1,0-2,0.9-2,2v5c0,1.1,0.9,2,2,2s2-0.9,2-2V5C101,3.9,100.1,3,99,3"/>
		<path fill="#FFFFFF" d="M81,3c-1.1,0-2,0.9-2,2v5c0,1.1,0.9,2,2,2s2-0.9,2-2V5C83,3.9,82.1,3,81,3"/>
	</g>
	<rect x="65.4" y="-1.5" display="none" fill="#AA3F41" stroke="#FFFFFF" stroke-miterlimit="10" width="49.3" height="48.8"/>
	<g id="layer1" transform="translate(-187.83188,-452.99906)">
		<g id="g2993" transform="matrix(1.25,0,0,-1.25,187.83188,611.72531)">
			<g id="g2995" transform="scale(0.1,0.1)">
				<g id="g2997">
					<g>
						<g id="g2999">
							<path id="path3005" fill="#fff" d="M797.1,1001.7h-18v85c0,2.5-0.8,4.2-2.3,4.8c-1,0.6-3.1,0.8-5.9,0.8v8.8h17.4
								c5.9,0,8.8-2.5,8.8-7.7C797.1,1093.4,797.1,1001.7,797.1,1001.7z M797.1,1001.7h-18H797.1"/>
							<path id="path3007" fill="#fff" d="M767.2,1045.7c0,15.3-11.9,22-28.9,22c-10.1,0-19.7-1.7-27-3.4l3.3-14.4
								c6.5,1.3,15.3,2.5,23.7,2.5c10.1,0,11.9-1.7,11.9-8.4v-1.7h-15.1c-12.3,0-25.3-5.6-25.3-20.3c0-19.7,20.3-22.2,28.5-22.2
								c9.2,0,28.9,3.4,28.9,3.4V1045.7z M750.2,1015.9c-4.2-0.6-8-0.8-11.9-0.8c-5,0-11.9,0.4-11.9,5.9c0,5.6,5.4,5.9,11.9,5.9
								h11.9V1015.9"/>
							<path id="path3009" fill="#fff" d="M686.1,1076.4l14.9-1.7l2.7,26.2c-7.1,2.1-18.6,3.4-28.1,3.4
								c-36.2,0-47.3-15.5-47.3-41.9v-20.5c0-26.6,10.5-42.1,47.3-42.1c9.6,0,21.3,1.5,28.3,3.6l-1.9,14.5
								c-9.8-1.7-18.4-2.5-26.2-2.5c-21.6,0-29.3,6.1-29.3,25.7v21.8c0,19.7,7.7,25.7,29.3,25.7c2.9,0,5.9,0,9-0.2L686.1,1076.4"/>
							<path id="path3011" fill="#fff" d="M828.5,1001.7h-17.8v85c0,2.5-1,4.2-2.5,4.8c-1,0.6-3.1,0.8-5.9,0.8v8.8h17.4
								c5.9,0,8.8-2.5,8.8-7.7V1001.7L828.5,1001.7z M828.5,1001.7h-18H828.5"/>
							<path id="path3013" fill="#fff" d="M614.8,1001.7h-18v52.3c0,2.3-0.8,4-2.3,4.8c-1.1,0.4-3.1,0.8-6.1,0.8v8.8H606
								c5.7,0,8.8-2.7,8.8-7.8C614.8,1060.5,614.8,1001.7,614.8,1001.7z M614.8,1001.7h-18.2H614.8"/>
							<path id="path3015" fill="#fff" d="M596.8,1091.1h16.5v-14.4h-16.5V1091.1z M613.3,1076.7h-16.7H613.3L613.3,1076.7"/>
							<path id="path3017" fill="#ADADAB" d="M846.7,1104.2 M848.3,1104.3 M842,1110 M848.3,1104.3"/>
						</g>
					</g>
				</g>
			</g>
		</g>
	</g>
</g>
</svg>
