<?xml version="1.0" encoding="utf-8"?>
<!-- Generator: Adobe Illustrator 21.0.2, SVG Export Plug-In . SVG Version: 6.00 Build 0)  -->
<svg version="1.1" id="Layer_1" xmlns="http://www.w3.org/2000/svg" xmlns:xlink="http://www.w3.org/1999/xlink" x="0px" y="0px"
	 viewBox="0.5 -46.5 86.9 86.7" style="enable-background:new 0.5 -46.5 86.9 86.7;" xml:space="preserve">
<g>
	<g>
		<path d="M82.2,9.9c-5-5-12.6-6.5-19.2-3.9L49.9-7l21.5-21.5h4.7c0.5,0,0.9-0.2,1.2-0.6l6.6-8.7c0.4-0.6,0.4-1.4-0.1-2l-1.6-1.6
			L80.6-43c-0.5-0.5-1.4-0.6-2-0.1l-8.7,6.6c-0.4,0.3-0.6,0.7-0.6,1.2v4.7L47.8-9.1L34.7-22.2c2.7-6.6,1.2-14.1-3.9-19.2
			c-4.9-4.9-12.3-6.5-18.8-4c-0.5,0.2-0.8,0.6-0.9,1.1s0,1,0.4,1.4l6.6,6.6c1,1,1.5,2.3,1.5,3.7s-0.5,2.7-1.5,3.7s-2.3,1.5-3.7,1.5
			s-2.7-0.5-3.7-1.5l-6.6-6.6c-0.4-0.4-0.9-0.5-1.4-0.4c-0.5,0.1-0.9,0.5-1.1,0.9c-2.4,6.5-0.9,13.9,4,18.8c5,5,12.6,6.5,19.2,3.9
			l5.9,5.9l-0.6,0.6c-0.3,0.3-0.4,0.7-0.4,1.1v1.6c0,1.3-1.1,2.4-2.4,2.4h-1.5c-0.4,0-0.8,0.2-1.1,0.4l-18.9,19
			c-1.2,1.2-1.9,3-1.9,4.7L4,29.1c0.1,4.3,3.5,7.7,7.7,7.7l5.7,0.1h0.1c1.7,0,3.4-0.7,4.6-1.9l19.1-19.1c0.3-0.3,0.4-0.7,0.4-1.1
			v-1.5c0-1.3,1.1-2.4,2.4-2.4h1.6c0.4,0,0.8-0.2,1.1-0.4l0.6-0.6l5.9,5.9C50.5,22.4,52,29.9,57.1,35c4.9,4.9,12.3,6.5,18.8,4
			c0.5-0.2,0.8-0.6,0.9-1.1s0-1-0.4-1.4l-6.6-6.6c-1-1-1.5-2.3-1.5-3.7s0.5-2.7,1.5-3.7s2.3-1.5,3.7-1.5s2.7,0.5,3.7,1.5l6.6,6.6
			c0.4,0.4,0.9,0.5,1.4,0.4s0.9-0.5,1.1-0.9c0.8-2,1.1-4.1,1.1-6.2C87.4,17.9,85.6,13.3,82.2,9.9z M72.3-34.6l7.1-5.3l0.6,0.7
			l0.7,0.7l-5.3,7.1h-3.1L72.3-34.6z M26.4-15.3c-0.4-0.4-1.1-0.6-1.7-0.3c-5.6,2.7-12.4,1.5-16.8-2.9c-3.5-3.5-5-8.5-4-13.3L8.7-27
			c3.2,3.2,8.4,3.2,11.6,0s3.2-8.4,0-11.6l-4.8-4.8c4.8-0.9,9.8,0.5,13.3,4c4.4,4.4,5.6,11.1,2.9,16.8c-0.3,0.6-0.2,1.3,0.3,1.7
			L45.8-7.1l-3.2,3.2L36.5-10c-0.3-0.3-0.7-0.4-1.1-0.4s-0.8,0.2-1.1,0.4L33-8.7L26.4-15.3z M45.2,7.8L45.2,7.8l-1.1,0.1
			c-3,0-5.4,2.4-5.4,5.4v0.9L20,32.9c-0.7,0.7-1.6,1.1-2.6,1l-5.7-0.1c-2.6,0-4.7-2.1-4.8-4.8l-0.1-5.7c0-1,0.4-1.9,1-2.6L26.5,2
			h0.9c3,0,5.4-2.4,5.4-5.4v-1l0.1-0.1L35-6.6L47.2,5.6L45.2,7.8z M84.1,25.3l-4.8-4.8c-3.2-3.2-8.4-3.2-11.6,0s-3.2,8.4,0,11.6
			l4.8,4.8c-4.8,0.9-9.8-0.5-13.3-4c-4.4-4.4-5.5-11.1-2.9-16.8c0.3-0.6,0.2-1.3-0.3-1.7l-6.5-6.6l1.2-1.2c0.3-0.3,0.4-0.7,0.4-1.1
			s-0.2-0.8-0.4-1.1l-6.1-6.1l3.2-3.2L61.6,8.9c0.4,0.4,1.1,0.6,1.7,0.3c5.6-2.7,12.4-1.5,16.8,2.9C83.6,15.6,85.1,20.6,84.1,25.3z"
			/>
		<path d="M30,6.2c-0.6-0.6-1.5-0.6-2.1,0L11.1,23c-0.6,0.6-0.6,1.5,0,2.1c0.3,0.3,0.7,0.4,1.1,0.4s0.8-0.1,1.1-0.4L30,8.4
			C30.6,7.8,30.6,6.8,30,6.2z"/>
		<path d="M32.4,10.8L15.7,27.6c-0.6,0.6-0.6,1.5,0,2.1c0.3,0.3,0.7,0.4,1.1,0.4s0.8-0.1,1.1-0.4l16.8-16.8c0.6-0.6,0.6-1.5,0-2.1
			S33,10.2,32.4,10.8z"/>
	</g>
</g>
</svg>
