<?xml version="1.0" encoding="utf-8"?>
<!-- Generator: Adobe Illustrator 17.1.0, SVG Export Plug-In . SVG Version: 6.00 Build 0)  -->
<!DOCTYPE svg PUBLIC "-//W3C//DTD SVG 1.1//EN" "http://www.w3.org/Graphics/SVG/1.1/DTD/svg11.dtd">
<svg version="1.1" id="Слой_1" xmlns="http://www.w3.org/2000/svg" xmlns:xlink="http://www.w3.org/1999/xlink" x="0px" y="0px"
	 viewBox="0 0 84.7 90" enable-background="new 0 0 84.7 90" xml:space="preserve">
<g>
	<path clip-path="url(#SVGID_2_)" d="M54.4,73.6c-5.1,3.2-11.2,5.1-17.7,5.1c-7.6,0-14.7-2.6-20.3-6.9c4.9-6.3,12.4-9.9,20.3-9.9
		c7.1,0,13.9,3,18.8,8.1c0.4-1,1-1.9,1.6-2.8c-5.4-5.3-12.7-8.4-20.4-8.4c-8.9,0-17.3,4.1-22.8,11C7.3,63.7,3.1,54.8,3.1,45
		c0-18.5,15.1-33.6,33.6-33.6c6.4,0,12.5,1.8,17.6,5c-0.1-0.8-0.2-1.6-0.2-2.5c0-0.4,0-0.8,0.1-1.2C49,9.9,43,8.3,36.7,8.3
		C16.5,8.3,0,24.8,0,45c0,11.3,5.2,21.4,13.3,28.1v0.2c6.4,5.2,14.5,8.4,23.4,8.4c6.3,0,12.3-1.6,17.5-4.5c0-0.4,0-0.8,0-1.1
		C54.2,75.2,54.2,74.4,54.4,73.6"/>
	<path clip-path="url(#SVGID_2_)" d="M35.2,15.9V19c0,0.9,0.6,1.5,1.5,1.5c0.9,0,1.5-0.6,1.5-1.5v-3.1c0-0.9-0.6-1.5-1.5-1.5
		C35.8,14.4,35.2,15,35.2,15.9"/>
	<path clip-path="url(#SVGID_2_)" d="M23.4,19c-0.5-0.8-1.4-1.1-2.1-0.6s-1.1,1.4-0.6,2.1l1.5,2.6c0.3,0.5,0.9,0.8,1.4,0.8
		c0.3,0,0.5-0.2,0.8-0.2c0.8-0.5,1.1-1.4,0.6-2.1L23.4,19z"/>
	<path clip-path="url(#SVGID_2_)" d="M14.5,30.3l-2.6-1.5c-0.8-0.3-1.8-0.2-2.1,0.6c-0.3,0.8-0.2,1.7,0.6,2.1l2.6,1.5
		c0.3,0.2,0.5,0.2,0.8,0.2c0.6,0,1.1-0.2,1.4-0.8C15.4,31.7,15.3,30.8,14.5,30.3"/>
	<path clip-path="url(#SVGID_2_)" d="M10.7,43.5H7.6c-0.9,0-1.5,0.6-1.5,1.5c0,0.9,0.6,1.5,1.5,1.5h3.1c0.9,0,1.5-0.6,1.5-1.5
		C12.2,44.1,11.6,43.5,10.7,43.5"/>
	<path clip-path="url(#SVGID_2_)" d="M61.2,45c0,0.9,0.6,1.5,1.5,1.5h0.7l0-3.1h-0.7C61.8,43.5,61.2,44.1,61.2,45"/>
	<path clip-path="url(#SVGID_2_)" d="M59,33.4c0.3,0,0.6-0.2,0.8-0.2l2.6-1.5c0.8-0.5,1.1-1.4,0.6-2.1c-0.5-0.8-1.4-1.1-2.1-0.6
		l-2.6,1.5c-0.8,0.5-1.1,1.4-0.6,2.1C58,33.1,58.6,33.4,59,33.4"/>
	<path clip-path="url(#SVGID_2_)" d="M48.6,23.6c0.3,0.2,0.5,0.2,0.8,0.2c0.5,0,0.9-0.3,1.4-0.8l1.5-2.6c0.3-0.8,0.2-1.7-0.6-2.1
		c-0.8-0.3-1.7-0.2-2.1,0.6L48,21.4C47.7,22.2,47.9,23.1,48.6,23.6"/>
	<path clip-path="url(#SVGID_2_)" d="M31.4,45c0,3.1,2.4,5.5,5.5,5.5c3.1,0,5.5-2.4,5.5-5.5c0-0.6-0.2-1.1-0.3-1.5l11.3-6.6
		c0.8-0.3,1.1-1.2,0.6-2c-0.5-0.8-1.4-0.9-2.1-0.6l-11.5,6.6c-0.9-0.8-2.1-1.4-3.5-1.4C33.8,39.5,31.4,41.9,31.4,45 M39.3,45.2
		c0,1.4-1.1,2.4-2.4,2.4c-1.4,0-2.4-1.1-2.4-2.4c0-1.4,1.1-2.4,2.4-2.4C38.2,42.7,39.3,43.8,39.3,45.2"/>
	<path clip-path="url(#SVGID_2_)" d="M75.4,62.1l-0.2-34.2c5.6-2.4,9.3-7.8,9.3-14c0-5.9-3.5-11.4-9-13.8c-0.4-0.2-0.8-0.1-1.2,0.1
		c-0.4,0.2-0.6,0.6-0.6,1.1v8c0,1.2-0.5,2.3-1.3,3.1c-0.8,0.8-1.9,1.3-3.1,1.3s-2.3-0.5-3.1-1.3s-1.3-1.9-1.3-3.1v-8
		c0-0.5-0.2-0.8-0.6-1.1C63.8,0,63.3,0,62.9,0.1c-1.7,0.7-3.1,1.8-4.4,3.1c-2.5,2.5-4.1,5.9-4.4,9.5c0,0.4-0.1,0.8-0.1,1.2
		c0,0.8,0.1,1.7,0.2,2.5c0.8,5.1,4.2,9.4,9.1,11.5l0,15.6l0,3.1l0,15.6c-2.6,1.1-4.8,2.8-6.4,5c-0.6,0.9-1.2,1.8-1.6,2.8
		c-0.5,1.2-0.9,2.4-1.1,3.7c-0.1,0.8-0.2,1.7-0.2,2.5c0,0.4,0,0.8,0,1.1c0.4,5.5,3.8,10.4,8.9,12.7c0.4,0.2,0.8,0.1,1.2-0.1
		c0.4-0.2,0.6-0.6,0.6-1.1v-8c0-1.2,0.5-2.3,1.3-3.1c0.8-0.8,1.9-1.3,3.1-1.3s2.3,0.5,3.1,1.3c0.8,0.8,1.3,1.9,1.3,3.1v8
		c0,0.5,0.2,0.8,0.6,1.1c0.4,0.2,0.8,0.2,1.2,0.1c5.4-2.5,9-7.9,9-13.8C84.7,70,81,64.5,75.4,62.1 M76.3,86.6v-5.8c0-3.9-3.1-7-7-7
		s-7,3.1-7,7v5.8c-3.5-2.4-5.6-6.2-5.6-10.5c0-0.1,0-0.2,0-0.3c0.1-2.5,0.8-4.9,2.2-6.9c1.3-1.9,3.1-3.4,5.3-4.4
		c0.3-0.1,0.6-0.3,0.9-0.4c0.5-0.2,0.9-0.7,0.8-1.2l0-1.2l0.1-15.3l0-3l0.1-15l0-1.5c0-0.5-0.3-1-0.8-1.2c-0.4-0.1-0.8-0.3-1.2-0.5
		c-2.8-1.3-5-3.7-6.2-6.5c-0.6-1.4-0.9-2.9-1-4.5c0-0.1,0-0.3,0-0.4c0-4.2,2.1-8.2,5.6-10.4v5.8c0,3.9,3.1,7,7,7s7-3.1,7-7V3.4
		C79.8,5.8,82,9.7,82,13.9c0,5.3-3.4,10.1-8.4,11.9C73,26,72.6,26.5,72.7,27l0,10.6l0,14.7l0,10.6c0,0.5,0.3,1,0.8,1.2
		c5,1.8,8.4,6.6,8.4,11.9C81.9,80.3,79.8,84.3,76.3,86.6"/>
</g>
</svg>
