<?xml version="1.0" encoding="utf-8"?>
<!-- Generator: Adobe Illustrator 21.0.2, SVG Export Plug-In . SVG Version: 6.00 Build 0)  -->
<svg version="1.1" id="Layer_1" xmlns="http://www.w3.org/2000/svg" xmlns:xlink="http://www.w3.org/1999/xlink" x="0px" y="0px"
	 viewBox="5.2 -48.3 77.8 90.1" style="enable-background:new 5.2 -48.3 77.8 90.1;" xml:space="preserve">
<g>
	<g>
		<g>
			<path d="M44,41.8c-0.5,0-0.9-0.1-1.3-0.2c-10.9-4.1-19.6-9.5-26.4-16.4c-5.2-5.3-8.5-10.8-9.9-16.8C5.7,5.5,5.3,2.7,5.3,0
				C5.2-7.5,5.2-15.2,5.2-22.6c0-2.7,0-5.3,0-8c0-2.6,1-3.7,3.6-3.9c8.7-0.5,17.4-3.3,26.4-8.6c1.8-1,3.6-2.2,5.3-3.4l0.9-0.6
				c2.4-1.6,3.1-1.6,5.4,0c6.3,4.4,12.5,7.6,18.9,9.8c4.6,1.6,9.3,2.5,13.9,2.7c2.2,0.1,3.4,1.3,3.4,3.6c0,4.2,0,8.3,0,12.5v4.5
				c0,0.2,0,0.4-0.1,0.6c0,1.4,0,2.9,0,4.3c0,3.7,0.1,7.4-0.1,11.2c-0.2,6.3-2.4,12.2-6.7,18C71.3,26.6,65,31.8,56.8,36.3
				c-2.8,1.5-5.8,2.8-8.7,4.1c-0.8,0.3-1.6,0.7-2.4,1.1C45.2,41.7,44.6,41.8,44,41.8z M8.3-31.3c0,0.1,0,0.3,0,0.7c0,2.7,0,5.3,0,8
				c0,7.4,0,15,0.1,22.5c0,2.5,0.4,5.1,1,7.7c1.3,5.5,4.3,10.5,9.1,15.4c6.5,6.6,14.8,11.8,25.3,15.7c0.1,0,0.5,0,0.7-0.1
				c0.8-0.4,1.6-0.7,2.4-1.1c2.8-1.2,5.8-2.5,8.5-4c7.8-4.2,13.8-9.2,18.2-15.2C77.5,13,79.5,7.7,79.7,2c0.1-3.7,0.1-7.4,0.1-11
				c0-1.6,0-3.3,0-4.9c0-0.2,0-0.4,0.1-0.6v-3.9c0-4.2,0-8.3,0-12.5c0-0.2,0-0.4,0-0.4c-0.1,0-0.2,0-0.4-0.1
				c-4.9-0.3-9.9-1.2-14.8-2.9C58-36.5,51.5-39.9,45-44.5c-0.3-0.2-0.7-0.5-0.9-0.6c-0.2,0.1-0.7,0.4-1,0.6l-0.8,0.6
				c-1.8,1.2-3.6,2.4-5.4,3.5c-9.4,5.5-18.5,8.5-27.8,9C8.6-31.4,8.4-31.4,8.3-31.3z"/>
		</g>
	</g>
	<g>
		<path d="M44,25.4c-9.5,0-17.2-7.7-17.2-17.2S34.5-8.9,44-8.9S61.2-1.2,61.2,8.2S53.5,25.4,44,25.4z M44-5.9
			c-7.8,0-14.1,6.3-14.1,14.1S36.2,22.3,44,22.3S58.1,16,58.1,8.2S51.8-5.9,44-5.9z"/>
		<path d="M55.7-0.9c-0.8,0-1.5-0.7-1.5-1.5v-14.2c0-5.6-4.6-10.2-10.2-10.2s-10.2,4.6-10.2,10.2v14.2c0,0.8-0.7,1.5-1.5,1.5
			s-1.5-0.7-1.5-1.5v-14.2c0-7.3,5.9-13.3,13.3-13.3c7.3,0,13.3,5.9,13.3,13.3v14.2C57.3-1.5,56.6-0.9,55.7-0.9z"/>
		<path d="M43,10.6v3.6c0,0.7,0.3,1.2,1,1.2s1-0.5,1-1.2v-3.6c2-0.5,2.4-1.7,2.4-3.2C47.4,5.5,46,4,44.1,4s-3.4,1.5-3.4,3.4
			C40.7,8.9,41,10.1,43,10.6z"/>
	</g>
</g>
</svg>
