<?xml version="1.0" encoding="utf-8"?>
<!-- Generator: Adobe Illustrator 17.1.0, SVG Export Plug-In . SVG Version: 6.00 Build 0)  -->
<!DOCTYPE svg PUBLIC "-//W3C//DTD SVG 1.1//EN" "http://www.w3.org/Graphics/SVG/1.1/DTD/svg11.dtd">
<svg version="1.1" id="Слой_1" xmlns="http://www.w3.org/2000/svg" xmlns:xlink="http://www.w3.org/1999/xlink" x="0px" y="0px"
	 viewBox="0 0 75.9 45.7" enable-background="new 0 0 75.9 45.7" xml:space="preserve">
<g>
	<path fill-rule="evenodd" clip-rule="evenodd" fill="#009DDD" d="M37.9,39.8c4.6-4.2,7.5-10.2,7.5-17c0-6.7-2.9-12.8-7.5-17
		C33.9,2.2,28.6,0,22.7,0C10.2,0,0,10.2,0,22.9c0,12.6,10.2,22.9,22.7,22.9C28.6,45.7,33.9,43.5,37.9,39.8L37.9,39.8z"/>
	<path fill-rule="evenodd" clip-rule="evenodd" fill="#ED1C2E" d="M53.2,0C47.3,0,42,2.2,37.9,5.9c-0.8,0.7-1.6,1.6-2.3,2.4h4.6
		c0.6,0.8,1.2,1.6,1.7,2.4h-8c-0.5,0.8-0.9,1.6-1.3,2.4h10.7c0.4,0.8,0.7,1.6,1,2.4H31.6c-0.3,0.8-0.5,1.6-0.7,2.4h13.9
		c0.3,1.6,0.5,3.2,0.5,4.8c0,2.5-0.4,5-1.2,7.3H31.6c0.3,0.8,0.6,1.6,1,2.4h10.7c-0.4,0.8-0.8,1.6-1.3,2.4h-8
		c0.5,0.8,1.1,1.7,1.7,2.4h4.6c-0.7,0.9-1.5,1.7-2.3,2.4c4,3.7,9.4,5.9,15.2,5.9c12.5,0,22.7-10.2,22.7-22.9
		C75.9,10.2,65.7,0,53.2,0L53.2,0z"/>
	<path fill-rule="evenodd" clip-rule="evenodd" fill="#ED1C2E" d="M72.9,35.6c0-0.4,0.3-0.7,0.7-0.7c0.4,0,0.7,0.3,0.7,0.7
		c0,0.4-0.3,0.7-0.7,0.7C73.2,36.4,72.9,36,72.9,35.6L72.9,35.6z M73.6,36.2c0.3,0,0.6-0.3,0.6-0.6c0-0.3-0.2-0.6-0.6-0.6
		c-0.3,0-0.6,0.3-0.6,0.6C73,35.9,73.3,36.2,73.6,36.2L73.6,36.2z M73.5,35.9h-0.2v-0.6h0.3c0.1,0,0.1,0,0.2,0
		c0.1,0,0.1,0.1,0.1,0.2c0,0.1,0,0.1-0.1,0.2l0.1,0.3h-0.2l-0.1-0.3h-0.1V35.9v-0.4h0.1c0,0,0.1,0,0.1,0c0,0,0,0,0-0.1
		c0,0,0-0.1,0-0.1c0,0-0.1,0-0.1,0h-0.1v0.2V35.9L73.5,35.9z"/>
	<path fill-rule="evenodd" clip-rule="evenodd" fill="#FFFFFF" d="M68.1,27.8c0-0.4,0.3-0.7,0.7-0.7c0.4,0,0.7,0.3,0.7,0.7
		c0,0.4-0.3,0.7-0.7,0.7C68.4,28.6,68.1,28.2,68.1,27.8L68.1,27.8z M68.8,28.4c0.3,0,0.6-0.3,0.6-0.6c0-0.3-0.2-0.6-0.6-0.6
		c-0.3,0-0.6,0.3-0.6,0.6C68.2,28.1,68.5,28.4,68.8,28.4L68.8,28.4z M68.7,28.2h-0.2v-0.6h0.3c0.1,0,0.1,0,0.2,0
		c0.1,0,0.1,0.1,0.1,0.2c0,0.1,0,0.1-0.1,0.2l0.1,0.3h-0.2l-0.1-0.3h-0.1V28.2v-0.4h0.1c0,0,0.1,0,0.1,0c0,0,0,0,0-0.1
		c0,0,0-0.1,0-0.1c0,0-0.1,0-0.1,0h-0.1v0.2V28.2L68.7,28.2z"/>
	<polygon fill-rule="evenodd" clip-rule="evenodd" fill="#FFFFFF" points="19.9,28.6 17,28.6 18.7,19.7 14.9,28.6 12.3,28.6 
		11.8,19.7 10.1,28.6 7.6,28.6 9.7,17 14.2,17 14.4,24.1 17.5,17 22.1,17 19.9,28.6 	"/>
	<path fill-rule="evenodd" clip-rule="evenodd" fill="#FFFFFF" d="M51.4,28.5c-0.8,0.2-1.4,0.3-2,0.3c-1.4,0-2.2-0.7-2.2-2.1
		c0-0.3,0-0.5,0.1-0.8l0.2-0.9l0.1-0.7l1.3-7.2h2.8l-0.4,2.2h1.4l-0.4,2.3h-1.4l-0.7,3.9c0,0.2,0,0.3,0,0.4c0,0.5,0.3,0.7,1,0.7
		c0.3,0,0.6,0,0.8-0.1L51.4,28.5L51.4,28.5z"/>
	<path fill-rule="evenodd" clip-rule="evenodd" fill="#FFFFFF" d="M59.7,19.2c-0.2-0.1-0.3-0.1-0.3-0.1c-0.1,0-0.2-0.1-0.2-0.1
		c-0.1,0-0.2,0-0.3,0c-0.9,0-1.6,0.4-2.5,1.5l0.2-1.4h-2.6l-1.7,9.4h2.8c1-5.8,1.4-6.8,2.8-6.8c0.1,0,0.2,0,0.4,0l0.3,0.1L59.7,19.2
		L59.7,19.2z"/>
	<path fill-rule="evenodd" clip-rule="evenodd" fill="#FFFFFF" d="M40.2,22.1c0,1.2,0.7,2,2.2,2.6c1.2,0.5,1.3,0.6,1.3,1
		c0,0.6-0.5,0.9-1.6,0.9c-0.9,0-1.6-0.1-2.6-0.4l-0.4,2.2l0.1,0l0.5,0.1c0.2,0,0.4,0.1,0.7,0.1c0.7,0.1,1.2,0.1,1.6,0.1
		c3,0,4.4-1,4.4-3.1c0-1.3-0.6-2.1-2-2.6c-1.2-0.5-1.3-0.6-1.3-1c0-0.5,0.5-0.8,1.4-0.8c0.6,0,1.3,0.1,2.1,0.1l0.4-2.2
		c-0.7-0.1-1.9-0.2-2.5-0.2C41.3,18.9,40.2,20.4,40.2,22.1L40.2,22.1z"/>
	<path fill-rule="evenodd" clip-rule="evenodd" fill="#FFFFFF" d="M29.1,28.6h-2.3l0.1-1c-0.7,0.8-1.7,1.1-3,1.1
		c-1.5,0-2.6-1-2.6-2.6c0-2.3,1.8-3.6,5-3.6c0.3,0,0.7,0,1.2,0.1c0.1-0.3,0.1-0.4,0.1-0.6c0-0.6-0.5-0.9-1.8-0.9
		c-0.8,0-1.7,0.1-2.3,0.3l-0.4,0.1l-0.3,0.1l0.4-2.1c1.4-0.4,2.3-0.5,3.4-0.5c2.4,0,3.7,1,3.7,2.8c0,0.5,0,0.8-0.2,1.9l-0.6,3.3
		l-0.1,0.6L29.1,28l0,0.3L29.1,28.6L29.1,28.6z M27,24.4c-0.3,0-0.4,0-0.6,0c-1.6,0-2.4,0.5-2.4,1.4c0,0.6,0.4,1,1,1
		C26.1,26.7,26.9,25.8,27,24.4L27,24.4z"/>
	<path fill-rule="evenodd" clip-rule="evenodd" fill="#FFFFFF" d="M38.3,28.4c-1,0.3-1.9,0.4-2.9,0.4c-3.2,0-4.8-1.5-4.8-4.2
		c0-3.2,2.1-5.6,4.9-5.6c2.3,0,3.8,1.3,3.8,3.4c0,0.7-0.1,1.4-0.3,2.3h-5.6c0,0.1,0,0.2,0,0.3c0,1.1,0.8,1.7,2.5,1.7
		c1,0,1.9-0.2,2.9-0.6L38.3,28.4L38.3,28.4z M36.8,22.8c0-0.2,0-0.4,0-0.5c0-0.8-0.5-1.2-1.3-1.2c-0.9,0-1.5,0.6-1.8,1.7L36.8,22.8
		L36.8,22.8z"/>
	<path fill-rule="evenodd" clip-rule="evenodd" fill="#FFFFFF" d="M68.5,24.3c-0.4,3.1-2.6,4.5-5.5,4.5c-3.2,0-4.5-2-4.5-4.3
		c0-3.3,2.2-5.6,5.6-5.6c2.9,0,4.5,1.9,4.5,4.3C68.6,23.7,68.6,23.7,68.5,24.3L68.5,24.3z M65.6,23.1c0-1-0.4-1.9-1.6-1.9
		c-1.4,0-2.3,1.7-2.3,3.2c0,1.3,0.6,2.1,1.6,2.1c0.6,0,1.9-0.8,2.2-2.3C65.5,23.9,65.6,23.5,65.6,23.1L65.6,23.1z"/>
</g>
</svg>
