<?xml version="1.0" encoding="utf-8"?>
<!-- Generator: Adobe Illustrator 17.1.0, SVG Export Plug-In . SVG Version: 6.00 Build 0)  -->
<!DOCTYPE svg PUBLIC "-//W3C//DTD SVG 1.1//EN" "http://www.w3.org/Graphics/SVG/1.1/DTD/svg11.dtd">
<svg version="1.1" id="Слой_1" xmlns="http://www.w3.org/2000/svg" xmlns:xlink="http://www.w3.org/1999/xlink" x="0px" y="0px"
	 viewBox="0 0 76.4 59.2" enable-background="new 0 0 76.4 59.2" xml:space="preserve">
<g>
	<g>
		<path id="XMLID_1775_" d="M13.9,59.1v-3.9c0-1.5-0.9-2.5-2.5-2.5c-0.8,0-1.6,0.2-2.2,1.1c-0.4-0.7-1.1-1.1-2.1-1.1
			c-0.7,0-1.3,0.2-1.8,0.9v-0.8H4v6.3h1.4v-3.5c0-1.1,0.6-1.7,1.5-1.7c0.9,0,1.4,0.6,1.4,1.7v3.5h1.4v-3.5c0-1.1,0.6-1.7,1.5-1.7
			c0.9,0,1.4,0.6,1.4,1.7v3.5H13.9z M34.3,52.8H32v-1.9h-1.4v1.9h-1.3v1.2h1.3v2.9c0,1.5,0.6,2.3,2.2,2.3c0.6,0,1.3-0.2,1.7-0.5
			l-0.4-1.2c-0.4,0.2-0.9,0.4-1.2,0.4c-0.7,0-0.9-0.4-0.9-1v-2.8h2.2V52.8z M45.9,52.6c-0.8,0-1.3,0.4-1.7,0.9v-0.8h-1.4v6.3h1.4
			v-3.5c0-1,0.4-1.6,1.3-1.6c0.3,0,0.6,0,0.9,0.2l0.4-1.3C46.6,52.7,46.2,52.6,45.9,52.6L45.9,52.6z M28.3,53.3
			c-0.7-0.4-1.6-0.7-2.6-0.7c-1.6,0-2.6,0.8-2.6,2c0,1,0.8,1.7,2.2,1.8l0.6,0.1c0.7,0.1,1.1,0.3,1.1,0.7c0,0.5-0.5,0.8-1.4,0.8
			c-0.9,0-1.6-0.3-2.1-0.7l-0.6,1.1c0.7,0.6,1.7,0.8,2.7,0.8c1.8,0,2.9-0.9,2.9-2c0-1.1-0.8-1.7-2.2-1.9l-0.6-0.1
			c-0.6-0.1-1.1-0.2-1.1-0.6c0-0.5,0.4-0.7,1.2-0.7c0.8,0,1.6,0.3,2,0.5L28.3,53.3z M64.8,52.6c-0.8,0-1.3,0.4-1.7,0.9v-0.8h-1.4
			v6.3h1.4v-3.5c0-1,0.4-1.6,1.3-1.6c0.3,0,0.6,0,0.9,0.2l0.4-1.3C65.5,52.7,65.1,52.6,64.8,52.6L64.8,52.6z M47.3,55.9
			c0,1.9,1.3,3.3,3.3,3.3c0.9,0,1.6-0.2,2.3-0.7l-0.7-1.1c-0.5,0.4-1,0.6-1.6,0.6c-1.1,0-1.9-0.8-1.9-2c0-1.2,0.8-2,1.9-2
			c0.6,0,1.1,0.2,1.6,0.6l0.7-1.1c-0.7-0.5-1.3-0.7-2.3-0.7C48.6,52.6,47.3,54,47.3,55.9L47.3,55.9z M60,55.9v-3.1h-1.4v0.8
			c-0.4-0.6-1.1-0.9-2-0.9c-1.8,0-3.1,1.4-3.1,3.3c0,1.9,1.4,3.3,3.1,3.3c0.9,0,1.5-0.4,2-0.9v0.8H60V55.9z M55,55.9
			c0-1.1,0.7-2,1.9-2c1.1,0,1.9,0.9,1.9,2c0,1.1-0.8,2-1.9,2C55.7,57.9,55,57,55,55.9L55,55.9z M38.5,52.6c-1.8,0-3.1,1.3-3.1,3.3
			c0,2,1.3,3.3,3.2,3.3c0.9,0,1.8-0.2,2.6-0.9l-0.7-1C40,57.8,39.3,58,38.7,58c-0.9,0-1.7-0.4-1.9-1.5h4.7c0-0.2,0-0.3,0-0.5
			C41.5,54,40.3,52.6,38.5,52.6L38.5,52.6z M38.5,53.9c0.9,0,1.4,0.6,1.6,1.5h-3.3C37,54.5,37.5,53.9,38.5,53.9L38.5,53.9z
			 M72.7,55.9v-5.7h-1.4v3.3c-0.4-0.6-1.1-0.9-2-0.9c-1.8,0-3.1,1.4-3.1,3.3c0,1.9,1.4,3.3,3.1,3.3c0.9,0,1.5-0.4,2-0.9v0.8h1.4
			V55.9z M67.6,55.9c0-1.1,0.7-2,1.9-2c1.1,0,1.9,0.9,1.9,2c0,1.1-0.8,2-1.9,2C68.3,57.9,67.6,57,67.6,55.9L67.6,55.9z M21.6,55.9
			v-3.1h-1.4v0.8c-0.4-0.6-1.1-0.9-2-0.9c-1.8,0-3.1,1.4-3.1,3.3c0,1.9,1.4,3.3,3.1,3.3c0.9,0,1.5-0.4,2-0.9v0.8h1.4V55.9z
			 M16.5,55.9c0-1.1,0.7-2,1.9-2c1.1,0,1.9,0.9,1.9,2c0,1.1-0.8,2-1.9,2C17.2,57.9,16.5,57,16.5,55.9z"/>
	</g>
	<g id="XMLID_328_">
		<rect x="27.9" y="5" fill="#F16022" width="20.7" height="37.1"/>
		<path id="XMLID_330_" fill="#E91D25" d="M29.2,23.6c0-7.5,3.5-14.2,9-18.6c-4-3.2-9.1-5-14.6-5C10.6,0,0,10.6,0,23.6
			c0,13,10.6,23.6,23.6,23.6c5.5,0,10.6-1.9,14.6-5C32.7,37.8,29.2,31.1,29.2,23.6z"/>
		<path fill="#F69E1E" d="M76.4,23.6c0,13-10.6,23.6-23.6,23.6c-5.5,0-10.6-1.9-14.6-5c5.5-4.3,9-11,9-18.6S43.7,9.4,38.2,5
			c4-3.2,9.1-5,14.6-5C65.8,0,76.4,10.6,76.4,23.6z"/>
	</g>
</g>
</svg>
