<?xml version="1.0" encoding="utf-8"?>
<!-- Generator: Adobe Illustrator 19.1.0, SVG Export Plug-In . SVG Version: 6.00 Build 0)  -->
<svg version="1.1" id="Layer_1" xmlns="http://www.w3.org/2000/svg" xmlns:xlink="http://www.w3.org/1999/xlink" x="0px" y="0px"
	 viewBox="0 0 285.2 80.4" style="enable-background:new 0 0 285.2 80.4;" xml:space="preserve">
<style type="text/css">
</style>
<path fill="#21AA4D" d="M157.8,8.4l-17.9,38.8h-1.8V0h-25.4v80h21.6c5.7,0,10.8-3.3,13.2-8.4l17.9-38.8h1.8V80h25.4V0H171
	C165.4,0,160.2,3.3,157.8,8.4"/>
<path fill="#21AA4D" d="M62.4,10.5L51.8,47.2H50L39.4,10.5C37.6,4.3,31.9,0,25.4,0H0v80h25.4V32.7h1.8L41.8,80H60l14.5-47.2h1.8V80
	h25.4V0H76.3C69.9,0,64.2,4.3,62.4,10.5"/>
<path fill="#21AA4D" d="M203.5,36.3V80h25.4V54.5h27.3c11.9,0,21.9-7.6,25.7-18.2H203.5z"/>
<linearGradient id="SVGID_1_" gradientUnits="userSpaceOnUse" x1="199.8772" y1="16.3557" x2="283.4646" y2="16.3557">
	<stop  offset="9.852220e-003" style="stop-color:#18A6DF"/>
	<stop  offset="0.2373" style="stop-color:#15A0DB"/>
	<stop  offset="0.6129" style="stop-color:#1191D0"/>
	<stop  offset="1" style="stop-color:#0D7EC3"/>
</linearGradient>
<path fill="#1294d2" d="M256.2,0h-56.3c3.4,18.6,19.7,32.7,39.3,32.7h43.7c0.4-1.8,0.5-3.6,0.5-5.5C283.5,12.2,271.3,0,256.2,0"/>
</svg>
