<?xml version="1.0" encoding="utf-8"?>
<!-- Generator: Adobe Illustrator 17.1.0, SVG Export Plug-In . SVG Version: 6.00 Build 0)  -->
<!DOCTYPE svg PUBLIC "-//W3C//DTD SVG 1.1//EN" "http://www.w3.org/Graphics/SVG/1.1/DTD/svg11.dtd">
<svg version="1.1" id="Слой_1" xmlns="http://www.w3.org/2000/svg" xmlns:xlink="http://www.w3.org/1999/xlink" x="0px" y="0px"
	 viewBox="0 0 17 17" enable-background="new 0 0 17 17" xml:space="preserve">
<title>odnolassniki</title>
<path d="M7.7,12c-1.3-0.1-2.5-0.5-3.5-1.3c-0.1-0.1-0.3-0.2-0.4-0.3C3.3,10,3.3,9.5,3.6,9C3.9,8.6,4.4,8.4,5,8.7
	c0.1,0.1,0.2,0.1,0.3,0.2c1.9,1.3,4.5,1.3,6.4,0.1c0.2-0.1,0.4-0.3,0.6-0.3c0.4-0.1,0.9,0.1,1.1,0.4c0.3,0.5,0.3,0.9-0.1,1.2
	c-0.5,0.5-1.2,0.9-1.9,1.2c-0.7,0.2-1.4,0.4-2.1,0.5c0.1,0.1,0.2,0.2,0.2,0.2c1,1,2,2,2.9,3c0.3,0.3,0.4,0.8,0.2,1.1
	c-0.2,0.4-0.6,0.7-1.1,0.7c-0.3,0-0.5-0.2-0.7-0.4c-0.7-0.7-1.5-1.5-2.2-2.2c-0.2-0.2-0.3-0.2-0.5,0c-0.7,0.8-1.5,1.5-2.3,2.3
	c-0.3,0.3-0.8,0.4-1.1,0.2c-0.4-0.2-0.7-0.6-0.7-1.1c0-0.3,0.2-0.5,0.4-0.7c1-1,1.9-1.9,2.9-2.9C7.5,12.1,7.6,12.1,7.7,12z"/>
<path d="M8.5,8.6c-2.4,0-4.3-2-4.3-4.3S6.1,0,8.5,0s4.3,2,4.3,4.3c0,0,0,0,0,0C12.8,6.7,10.8,8.6,8.5,8.6z M10.6,4.3
	c0-1.2-0.9-2.1-2.1-2.1S6.4,3.2,6.4,4.3c0,1.2,0.9,2.1,2.1,2.1c0,0,0,0,0,0C9.7,6.4,10.6,5.5,10.6,4.3C10.6,4.3,10.6,4.3,10.6,4.3z"
	/>
</svg>
