<?xml version="1.0" encoding="utf-8"?>
<!-- Generator: Adobe Illustrator 17.1.0, SVG Export Plug-In . SVG Version: 6.00 Build 0)  -->
<!DOCTYPE svg PUBLIC "-//W3C//DTD SVG 1.1//EN" "http://www.w3.org/Graphics/SVG/1.1/DTD/svg11.dtd">
<svg version="1.1" id="Слой_1" xmlns="http://www.w3.org/2000/svg" xmlns:xlink="http://www.w3.org/1999/xlink" x="0px" y="0px"
	 viewBox="0 0 103.2 104.3" enable-background="new 0 0 103.2 104.3" xml:space="preserve">
<path id="path3" fill="#0072C6" d="M64.6,22.1v20.4l7.1,4.5c0.2,0.1,0.6,0.1,0.8,0l30.7-20.7
c0-2.4-2.3-4.2-3.6-4.2C99.6,22.1,64.6,22.1,64.6,22.1z"/>
<path id="path5" fill="#0072C6" d="M64.6,50.1l6.5,4.5c0.9,0.7,2,0,2,0c-1.1,0.7,30.1-20,30.1-20
	v37.5c0,4.1-2.6,5.8-5.6,5.8H64.6L64.6,50.1L64.6,50.1z"/>
<g id="g23" transform="matrix(3.9178712,0,0,3.9178712,-13.481395,-41.384474)">
	<path id="path25"  fill="#0072C6" d="M11.3,21c-0.6,0-1,0.3-1.4,0.8S9.5,23,9.5,23.9
		c0,0.9,0.2,1.6,0.5,2.1c0.3,0.5,0.8,0.8,1.3,0.8c0.6,0,1-0.3,1.3-0.8s0.5-1.2,0.5-2.1c0-0.9-0.2-1.7-0.5-2.2
		C12.3,21.2,11.9,21,11.3,21z"/>
	<path id="path27"  fill="#0072C6" d="M3.4,13.6v20.4l15.5,3.3V10.6L3.4,13.6z M13.8,27.2
		c-0.7,0.9-1.5,1.3-2.6,1.3c-1,0-1.9-0.4-2.5-1.3c-0.6-0.8-1-1.9-1-3.3c0-1.4,0.3-2.6,1-3.4c0.7-0.9,1.5-1.3,2.6-1.3
		c1,0,1.9,0.4,2.5,1.3c0.6,0.8,0.9,1.9,0.9,3.3C14.8,25.2,14.5,26.3,13.8,27.2z"/>
</g>
</svg>
