<?xml version="1.0" encoding="utf-8"?>
<!-- Generator: Adobe Illustrator 17.1.0, SVG Export Plug-In . SVG Version: 6.00 Build 0)  -->
<!DOCTYPE svg PUBLIC "-//W3C//DTD SVG 1.1//EN" "http://www.w3.org/Graphics/SVG/1.1/DTD/svg11.dtd">
<svg version="1.1" id="Слой_1" xmlns="http://www.w3.org/2000/svg" xmlns:xlink="http://www.w3.org/1999/xlink" x="0px" y="0px"
	 viewBox="0 1.8 16.6 13.3" enable-background="new 0 1.8 16.6 13.3" xml:space="preserve">
<g>
	<path d="M6.8,6.6c0,0.8-0.7,1.5-1.5,1.5c-0.8,0-1.5-0.7-1.5-1.5S4.4,5,5.3,5C6.1,5.1,6.8,5.7,6.8,6.6L6.8,6.6z
		 M4.8,6.6c0,0.3,0.2,0.5,0.5,0.5c0.3,0,0.5-0.2,0.5-0.5C5.8,6.3,5.6,6,5.3,6C5,6.1,4.8,6.3,4.8,6.6L4.8,6.6z"/>
	<path  d="M10.6,10.4c0,0.8-0.7,1.5-1.5,1.5s-1.5-0.7-1.5-1.5c0-0.8,0.7-1.5,1.5-1.5C9.9,8.8,10.6,9.5,10.6,10.4
		L10.6,10.4z M8.5,10.4c0,0.3,0.2,0.5,0.5,0.5c0.3,0,0.5-0.2,0.5-0.5S9.4,9.8,9.1,9.8C8.8,9.8,8.5,10.1,8.5,10.4L8.5,10.4z"/>
	<path  d="M9.1,5.7l0.7,0.7l-4.7,4.7l-0.7-0.7L9.1,5.7z"/>
	<path d="M0.1,15.1l0.6-1.5L0,12.6l0.6-1l-0.6-1l0.6-1.1L0,8.5l0.6-1L0,6.4l0.6-1L0,4.4l0.7-1.1L0.1,1.8l16.4,0
		l0,13.3L0.1,15.1z M1.6,2.8l0.2,0.6l-0.6,1l0.6,1l-0.6,1l0.6,1.1l-0.6,1l0.6,1l-0.6,1l0.6,1l-0.6,1l0.6,1l-0.2,0.6l14,0l0-11.3
		L1.6,2.8L1.6,2.8z"/>
	<rect x="12.6" y="10.7" width="1" height="1.4"/>
	<rect x="12.5" y="4.9" width="1" height="4.8"/>
</g>
</svg>
