<?xml version="1.0" encoding="utf-8"?>
<!-- Generator: Adobe Illustrator 17.1.0, SVG Export Plug-In . SVG Version: 6.00 Build 0)  -->
<!DOCTYPE svg PUBLIC "-//W3C//DTD SVG 1.1//EN" "http://www.w3.org/Graphics/SVG/1.1/DTD/svg11.dtd">
<svg version="1.1" id="Слой_1" xmlns="http://www.w3.org/2000/svg" xmlns:xlink="http://www.w3.org/1999/xlink" x="0px" y="0px"
	 viewBox="0 0 177 156.7" enable-background="new 0 0 177 156.7" xml:space="preserve" fill="red">
<g>
	<path d="M114.9,156.7c-14.7,0-28.1-0.5-28.4-0.5c-18.3-0.7-62.6-3-77-10.5C-2,139.8-1.1,120.3,2.2,47.9
		l0.5-11.1l1.1-1.1c2.4-2.4,5.4-1.7,11-0.5c7.8,1.7,24.1,5.1,55.3,5.1c1.3,0,6.4-0.2,12.9-0.4c67.2-2.4,73.5-1.6,76,0
		c5.6,3.7,5.1,13.5,4.6,23.1c-0.2,3.4-0.3,6.5-0.1,8.3c0.3,2.2-1.3,4.2-3.5,4.5c-2.2,0.3-4.2-1.3-4.5-3.5c-0.3-2.5-0.1-5.8,0.1-9.7
		c0.2-4.1,0.7-13.6-0.8-15.8c-7.2-1.2-53.7,0.4-71.5,1.1C76.1,48,71.4,48.2,70,48.2c-32,0-48.8-3.6-56.9-5.3
		c-0.9-0.2-1.8-0.4-2.7-0.5l-0.3,5.9c-2.7,59.6-3.9,86.8,3,90.4c8.9,4.6,35.8,8.1,72.2,9.5c33.6,1.3,59,0.2,62.9-1.3
		c2.5-2,4.4-15.9,4.1-29.5c-0.1-2.2,1.7-4,3.9-4.1c2.2-0.1,4,1.7,4.1,3.9c0.3,9.3,0,31.6-7.9,36.6
		C148.6,156.1,130.9,156.7,114.9,156.7"/>
	<path d="M129.8,121.3c-33.5,0-35.1-2.1-36.8-4.1c-0.8-1-1.1-2.2-1-3.5c-3.8-8.4-8.7-28.2-0.7-40.7
		c0.8-1.2,2-1.8,3.3-1.9c0.1,0,0.2,0,0.3-0.1c7.8-0.8,25.5-1.5,43-1.6c32.1-0.2,34.6,1.4,35.8,2.2c1.8,1.2,3.9,2.6,3,22.7
		c-0.4,8.5-1.4,19.2-2.3,22.6c-0.9,3.2-3.2,3.6-4.1,3.6C153.3,121.1,140.1,121.3,129.8,121.3 M100,112c4.4,0.9,19.5,1.9,67.2,0.7
		c1.2-7.4,2.5-28.4,1.5-34.3c-9.3-1.5-54.9-1-71.5,0.5c-4.4,9.4-1,25.4,2.5,32.2C99.9,111.4,100,111.7,100,112"/>
	<path d="M7.8,40.9c-0.5,0-1.1-0.1-1.6-0.3c-2-0.9-3-3.2-2.1-5.2c3.4-7.9,12.3-13.1,26.7-15.5
		c7.7-1.2,26.7-2.5,41.7-2.3c2.2,0,4,1.8,4,4c0,2.2-1.8,4-4,4c0,0,0,0-0.1,0c-15.4-0.2-33.8,1.2-40.3,2.2
		c-7.9,1.3-17.8,4.1-20.6,10.7C10.9,40,9.4,40.9,7.8,40.9"/>
	<path d="M149.4,44.4c-0.7,0-1.4-0.2-2.1-0.6c-1.8-1.1-2.4-3.4-1.5-5.3c0.7-2,0.4-9.3-0.5-11.7
		c-3.4-1-16.1-1.3-20.4-1.4c-2.2,0-4-1.9-3.9-4.1c0-2.2,1.8-3.9,4-3.9c0,0,0.1,0,0.1,0c17.7,0.4,23.2,1.1,25.7,3.3l0.1,0.1
		c4.1,4,3.9,18.3,1.9,21.6C152,43.8,150.7,44.4,149.4,44.4"/>
	<path d="M134,46c-1.5,0-2.9-0.8-3.6-2.2c-3.2-6.6-12.7-25.9-16.5-33.7c-8.2,3.1-32.2,12.5-84.7,33.7
		c-2,0.8-4.4-0.2-5.2-2.2c-0.8-2,0.2-4.4,2.2-5.2c67.4-27.3,88-35,88.2-35.1l3.4-1.3l1.6,3.3c0,0,14,28.7,18.1,37
		c1,2,0.1,4.4-1.8,5.4C135.2,45.9,134.6,46,134,46"/>
	<path d="M117.1,107c-4.3,0-8.7-2.5-11.1-6.3c-2-3.2-2.2-6.7-0.6-9.8c0.1-0.3,0.2-0.5,0.3-0.8
		c3.2-6.1,9.9-8,16.3-4.8c5.9,3,8.5,9.1,6,14.1c-3,6.2-7.8,7.4-10.3,7.5C117.5,106.9,117.3,107,117.1,107 M112.9,93.7
		c-0.1,0.3-0.2,0.6-0.4,0.8c-0.3,0.5-0.2,1.2,0.3,1.9c0.9,1.5,2.8,2.6,4.5,2.5c1.4-0.1,2.6-1.1,3.6-3c0.5-1-0.9-2.7-2.5-3.5
		C117,91.7,114.4,91,112.9,93.7"/>
</g>
</svg>
