<?xml version="1.0" encoding="utf-8"?>
<!-- Generator: Adobe Illustrator 17.1.0, SVG Export Plug-In . SVG Version: 6.00 Build 0)  -->
<!DOCTYPE svg PUBLIC "-//W3C//DTD SVG 1.1//EN" "http://www.w3.org/Graphics/SVG/1.1/DTD/svg11.dtd">
<svg version="1.1" id="Layer_1" xmlns="http://www.w3.org/2000/svg" xmlns:xlink="http://www.w3.org/1999/xlink" x="0px" y="0px"
	 viewBox="0 0 17 17" enable-background="new 0 0 17 17" xml:space="preserve">
<g>
	<circle fill="#65C5B7" cx="8.5" cy="8.5" r="8.5"/>
	<g>
		<line fill="none" stroke="#FFFFFF" stroke-width="1.5119" stroke-miterlimit="10" x1="5.5" y1="8" x2="11.5" y2="11.8"/>
		<line fill="none" stroke="#FFFFFF" stroke-width="1.5119" stroke-miterlimit="10" x1="5.5" y1="8" x2="11.5" y2="11.8"/>
		<line fill="none" stroke="#FFFFFF" stroke-width="1.5119" stroke-miterlimit="10" x1="11.6" y1="8" x2="5.6" y2="11.8"/>
		<g>
			<path fill="#FFFFFF" stroke="#4A666C" stroke-width="1.5119" stroke-miterlimit="10" d="M4.9,12.7V5c0-0.4,0.3-0.7,0.7-0.7l0,0
				c0.4,0,0.7,0.3,0.7,0.7v7.7L4.9,12.7L4.9,12.7z"/>
		</g>
		<g>
			<path fill="#FFFFFF" stroke="#4A666C" stroke-width="1.5119" stroke-miterlimit="10" d="M10.8,12.7V5c0-0.4,0.3-0.7,0.7-0.7l0,0
				c0.4,0,0.7,0.3,0.7,0.7v7.7L10.8,12.7L10.8,12.7z"/>
		</g>
		<rect x="3.6" y="5.8" fill="#FFFFFF" stroke="#4A666C" stroke-width="1.5119" stroke-miterlimit="10" width="9.8" height="2.6"/>
		
			<line fill="none" stroke="#4A666C" stroke-width="1.5119" stroke-linecap="round" stroke-miterlimit="10" x1="7" y1="5.5" x2="3.8" y2="8.5"/>
		
			<line fill="none" stroke="#4A666C" stroke-width="1.5119" stroke-linecap="round" stroke-miterlimit="10" x1="9.1" y1="5.5" x2="6" y2="8.5"/>
		
			<line fill="none" stroke="#4A666C" stroke-width="1.5119" stroke-linecap="round" stroke-miterlimit="10" x1="10.7" y1="5.9" x2="8.1" y2="8.5"/>
		
			<line fill="none" stroke="#4A666C" stroke-width="1.5119" stroke-linecap="round" stroke-miterlimit="10" x1="13.3" y1="5.5" x2="10.3" y2="8.3"/>
	</g>
</g>
</svg>
