<?xml version="1.0" encoding="utf-8"?>
<!-- Generator: Adobe Illustrator 21.0.2, SVG Export Plug-In . SVG Version: 6.00 Build 0)  -->
<svg version="1.1" id="Capa_1" xmlns="http://www.w3.org/2000/svg" xmlns:xlink="http://www.w3.org/1999/xlink" x="0px" y="0px"
	 viewBox="0 0 60 60" style="enable-background:new 0 0 60 60;" xml:space="preserve">
<g>
	<path d="M58.7,53.3L43.1,37.6c2.8-3.9,4.5-8.7,4.5-13.8C47.6,10.7,36.9,0,23.8,0S0,10.7,0,23.9s10.6,23.9,23.8,23.9
		c5,0,9.8-1.7,13.7-4.5l15.7,15.7c1.4,1.4,3.9,1.4,5.6,0l0,0C60.4,57.3,60.4,55,58.7,53.3z M23.8,42.1C13.7,42.1,5.6,34,5.6,23.9
		c0-10.1,8.1-18.2,18.2-18.2S42,13.8,42,23.9C42,34,33.8,42.1,23.8,42.1z"/>
</g>
</svg>
