<?xml version="1.0" encoding="utf-8"?>
<!-- Generator: Adobe Illustrator 17.1.0, SVG Export Plug-In . SVG Version: 6.00 Build 0)  -->
<!DOCTYPE svg PUBLIC "-//W3C//DTD SVG 1.1//EN" "http://www.w3.org/Graphics/SVG/1.1/DTD/svg11.dtd">
<svg version="1.1" id="Слой_1" xmlns="http://www.w3.org/2000/svg" xmlns:xlink="http://www.w3.org/1999/xlink" x="0px" y="0px"
	 viewBox="0 0 30 30" enable-background="new 0 0 30 30" xml:space="preserve">
<g id="Icon-Calendar" transform="translate(30.000000, 478.000000)">
	<path id="Fill-133"  d="M-3-448h-24c-1.7,0-3-1.3-3-3v-22c0-1.7,1.1-3,2.5-3h1.5v2h-1.5c-0.2,0-0.5,0.4-0.5,1v22
		c0,0.6,0.4,1,1,1h24c0.6,0,1-0.4,1-1v-22c0-0.6-0.3-1-0.5-1H-4v-2h1.5c1.4,0,2.5,1.3,2.5,3v22C0-449.3-1.3-448-3-448"/>
	<path id="Fill-134"  d="M-23-472c-0.6,0-1-0.4-1-1v-4c0-0.6,0.4-1,1-1s1,0.4,1,1v4C-22-472.4-22.4-472-23-472"/>
	<path id="Fill-135"  d="M-7-472c-0.6,0-1-0.4-1-1v-4c0-0.6,0.4-1,1-1s1,0.4,1,1v4C-6-472.4-6.4-472-7-472"/>
	<polygon id="Fill-136"  points="-20,-476 -10,-476 -10,-474 -20,-474 	"/>
	<polygon id="Fill-137"  points="-28,-470 -2,-470 -2,-468 -28,-468 	"/>
	<polygon id="Fill-138"  points="-6,-466 -4,-466 -4,-464 -6,-464 	"/>
	<polygon id="Fill-139"  points="-10,-466 -8,-466 -8,-464 -10,-464 	"/>
	<polygon id="Fill-140"  points="-14,-466 -12,-466 -12,-464 -14,-464 	"/>
	<polygon id="Fill-141"  points="-18,-466 -16,-466 -16,-464 -18,-464 	"/>
	<polygon id="Fill-142"  points="-22,-466 -20,-466 -20,-464 -22,-464 	"/>
	<polygon id="Fill-143"  points="-6,-462 -4,-462 -4,-460 -6,-460 	"/>
	<polygon id="Fill-144"  points="-10,-462 -8,-462 -8,-460 -10,-460 	"/>
	<polygon id="Fill-145"  points="-14,-462 -12,-462 -12,-460 -14,-460 	"/>
	<polygon id="Fill-146"  points="-18,-462 -16,-462 -16,-460 -18,-460 	"/>
	<polygon id="Fill-147"  points="-22,-462 -20,-462 -20,-460 -22,-460 	"/>
	<polygon id="Fill-148"  points="-26,-462 -24,-462 -24,-460 -26,-460 	"/>
	<polygon id="Fill-149"  points="-6,-458 -4,-458 -4,-456 -6,-456 	"/>
	<polygon id="Fill-150"  points="-10,-458 -8,-458 -8,-456 -10,-456 	"/>
	<polygon id="Fill-151"  points="-14,-458 -12,-458 -12,-456 -14,-456 	"/>
	<polygon id="Fill-152"  points="-18,-458 -16,-458 -16,-456 -18,-456 	"/>
	<polygon id="Fill-153"  points="-22,-458 -20,-458 -20,-456 -22,-456 	"/>
	<polygon id="Fill-154"  points="-26,-458 -24,-458 -24,-456 -26,-456 	"/>
	<polygon id="Fill-155"  points="-10,-454 -8,-454 -8,-452 -10,-452 	"/>
	<polygon id="Fill-156"  points="-14,-454 -12,-454 -12,-452 -14,-452 	"/>
	<polygon id="Fill-157"  points="-18,-454 -16,-454 -16,-452 -18,-452 	"/>
	<polygon id="Fill-158"  points="-22,-454 -20,-454 -20,-452 -22,-452 	"/>
	<polygon id="Fill-159"  points="-26,-454 -24,-454 -24,-452 -26,-452 	"/>
</g>
</svg>
