<?xml version="1.0" encoding="utf-8"?>
<!-- Generator: Adobe Illustrator 17.1.0, SVG Export Plug-In . SVG Version: 6.00 Build 0)  -->
<!DOCTYPE svg PUBLIC "-//W3C//DTD SVG 1.1//EN" "http://www.w3.org/Graphics/SVG/1.1/DTD/svg11.dtd">
<svg version="1.1" id="Слой_1" xmlns="http://www.w3.org/2000/svg" xmlns:xlink="http://www.w3.org/1999/xlink" x="0px" y="0px"
	 viewBox="0 0 93 72.1" enable-background="new 0 0 93 72.1" xml:space="preserve">
<g>
	
		<path clip-path="url(#SVGID_2_)" fill="none" stroke="#FF0000" stroke-width="3" stroke-linecap="round" stroke-linejoin="round" stroke-miterlimit="10" d="
		M16.5,51.3c-3.2-5.3-5-11.4-5-18c0-9.7,3.9-18.4,10.3-24.7"/>
	
		<path clip-path="url(#SVGID_2_)" fill="none" stroke="#FF0000" stroke-width="3" stroke-linecap="round" stroke-linejoin="round" stroke-miterlimit="10" d="
		M71.2,8.6c6.3,6.3,10.3,15.1,10.3,24.7c0,6.6-1.9,12.7-5,18"/>
	
		<path clip-path="url(#SVGID_2_)" fill="none" stroke="#FF0000" stroke-width="3" stroke-linecap="round" stroke-linejoin="round" stroke-miterlimit="10" d="
		M78.3,1.5c8.1,8.1,13.2,19.4,13.2,31.8c0,8.5-2.4,16.4-6.5,23.1"/>
	
		<path clip-path="url(#SVGID_2_)" fill="none" stroke="#FF0000" stroke-width="3" stroke-linecap="round" stroke-linejoin="round" stroke-miterlimit="10" d="
		M8,56.4c-4.1-6.8-6.5-14.7-6.5-23.1c0-12.4,5-23.7,13.2-31.8"/>
	
		<rect x="19.1" y="61.2" clip-path="url(#SVGID_2_)" fill="none" stroke="#FF0000" stroke-width="3" stroke-linecap="round" stroke-linejoin="round" stroke-miterlimit="10" width="54.7" height="9.4"/>
	
		<path clip-path="url(#SVGID_2_)" fill="none" stroke="#FF0000" stroke-width="3" stroke-linecap="round" stroke-linejoin="round" stroke-miterlimit="10" d="
		M68.9,61.2H24V30.8c0-11,8.9-19.9,19.9-19.9h5c11,0,19.9,8.9,19.9,19.9V61.2z"/>
</g>
</svg>
