<?xml version="1.0" encoding="utf-8"?>
<!-- Generator: Adobe Illustrator 17.1.0, SVG Export Plug-In . SVG Version: 6.00 Build 0)  -->
<!DOCTYPE svg PUBLIC "-//W3C//DTD SVG 1.1//EN" "http://www.w3.org/Graphics/SVG/1.1/DTD/svg11.dtd">
<svg version="1.1" id="Слой_1" xmlns="http://www.w3.org/2000/svg" xmlns:xlink="http://www.w3.org/1999/xlink" x="0px" y="0px"
	 viewBox="0 0 336 258.9" enable-background="new 0 0 336 258.9" xml:space="preserve">
<g>
	<path d="M196.6,95.1c-1.4-0.6-3-0.1-3.8,1.1L151.2,159c-5.1,2.1-9.4,6.2-11.8,11.7c-4.9,11.3,0.2,24.5,11.6,29.4
		c11.3,4.9,24.5-0.2,29.4-11.6c2.4-5.5,2.4-11.4,0.5-16.6l17.6-73.2C198.8,97.2,198,95.7,196.6,95.1L196.6,95.1z M196.6,95.1"/>
	<path d="M205.9,46l-0.7-0.2c-8-2.6-15.2-4.3-21.9-5.2c-5.6-0.8-11.3-1.1-17.2-1.1c-2,0-4,0.1-6,0.1c-5.8,0.2-11.6,1-17.5,2.2
		c-4.3,0.9-8,1.9-11.4,3c-2.6,0.8-5,1.7-7.9,2.8c-0.7,0.3-1.3,0.8-1.6,1.4c-0.3,0.7-0.3,1.4-0.1,2.1l5.1,13.8
		c0.3,0.7,0.8,1.3,1.5,1.6c1,0.5,2.6-0.1,2.9-0.2c3.8-1.2,6.9-2.1,9.8-2.7c4.3-0.9,7.8-1.5,10.9-1.8c2.3-0.2,4.8-0.4,7.8-0.5
		c0.8,0,1.6-0.1,2.5-0.1c2,0,4,0.1,6.2,0.2c3.4,0.2,7.1,0.6,11.4,1.4c5.6,1,11.3,2.6,18.5,5.3c0.3,0.1,0.6,0.2,1,0.2
		c0.4,0,0.8-0.1,1.2-0.3c0.7-0.3,1.2-0.9,1.4-1.6l5.8-16.6c0.2-0.7,0.2-1.5-0.1-2.1C207.2,46.7,206.7,46.2,205.9,46L205.9,46z
		 M205.9,46"/>
	<path d="M96.1,66c-0.5-0.6-1.2-0.9-1.9-1c-0.8-0.1-1.5,0.2-2.1,0.6c-3.6,3.1-8.4,7.2-12.7,12c-4.7,5.2-9,10.8-12.8,16.7
		c-4.6,7.2-8.2,14.5-10.7,21.7c-1.1,3-2.4,7-3.5,11.1c-0.7,2.9-1.3,5.8-1.8,8.2c-0.1,0.7,0,1.5,0.4,2.1c0.4,0.6,1.1,1.1,1.8,1.2
		l10.1,2c0.2,0,0.4,0.1,0.5,0.1h0c2.2,0,2.6-1.6,3.1-3.7c0.3-0.9,0.6-2.1,0.9-3.2c0.3-1.1,0.5-2.1,0.6-2.3c2-6.9,5-13.8,8.8-20.5
		c3.4-6.1,7.7-12,13-17.9c4.7-5.2,10.1-9.6,14.2-12.9c0.6-0.5,1-1.1,1.1-1.9c0.1-0.8-0.1-1.5-0.6-2.1L96.1,66z M96.1,66"/>
	<path d="M284,168.2l-22.8-2.4c-1.4-0.2-2.8,0.8-3,2.2l-1.2,6.4c-0.6,2.8-1.3,5.5-2.1,8.4c-0.3,0.9-0.5,1.8-0.8,2.7
		c-1.4,5.1-5.2,13.5-8.1,18.1c-0.4,0.7-0.6,1.5-0.4,2.2c0.2,0.8,0.7,1.4,1.4,1.8l22,11.5c0.4,0.2,0.8,0.3,1.3,0.3
		c0.3,0,0.6,0,0.9-0.1c0.7-0.2,1.3-0.7,1.6-1.4l1.9-3.8c3.3-6.5,5.9-13.7,8.2-22c2.1-7.6,3.1-15.1,3.7-20.8c0.1-0.7-0.1-1.5-0.6-2.1
		C285.4,168.7,284.7,168.3,284,168.2L284,168.2z M284,168.2"/>
	<path d="M255.4,131.7c0.6,2.5,1.2,5.1,1.8,8.2c0.1,0.7,0.6,1.4,1.2,1.8c0.4,0.3,1,0.4,1.5,0.4c0.2,0,0.4,0,0.6-0.1l21.3-4.8
		c0.7-0.2,1.4-0.6,1.8-1.3c0.4-0.6,0.5-1.4,0.3-2.1c-1.8-7.1-3.6-13-5.7-18.4c-2.6-6.6-6-13.2-10.3-20.1c-1.8-3-4-6.1-6.8-9.7
		c-2.5-3.3-5.1-6.3-7.7-9c-2.2-2.3-5.2-5.3-8.5-8.1c-2.3-1.9-4.6-3.8-6.6-5.4c-0.6-0.4-1.3-0.7-2.1-0.6c-0.7,0.1-1.4,0.5-1.9,1.1
		l-11.6,14.9c-0.9,1.2-0.7,2.9,0.4,3.8c0,0,2.1,1.8,3.1,2.7c2.4,2.1,4.9,4.6,7.5,7.5c3,3.3,5.2,6.1,7,8.7
		c4.7,6.8,8.2,13.2,10.8,19.8C253.5,125.3,254.6,128.6,255.4,131.7L255.4,131.7z M255.4,131.7"/>
	<path d="M74.2,205.2c-0.8-1.7-1.6-3.3-2.3-4.9c-1.3-3.1-2.6-6.5-4-10.9c-2.2-7-3.2-14.3-3.9-20.5c-0.1-0.7-0.5-1.4-1-1.9
		c-0.6-0.5-1.3-0.7-2.1-0.6l-9,1.2c-0.7,0.1-1.4,0.5-1.9,1.1c-0.4,0.6-0.6,1.4-0.5,2.1l0.2,1.2c1.3,8.9,3.1,16.1,5.4,22.5
		c1.2,3.3,2.7,7.2,4.5,11c1.2,2.5,2.6,5.2,4.4,8.5c0.4,0.7,1,1.2,1.7,1.4c0.3,0.1,0.5,0.1,0.8,0.1c0.5,0,0.9-0.1,1.4-0.4l6.5-3.6
		c1.3-0.7,1.8-2.4,1.1-3.7L74.2,205.2z M74.2,205.2"/>
	<path d="M286.9,50.3C255.1,17.8,212.9,0,168,0S80.9,17.9,49.1,50.3C17.4,82.6,0,125.6,0,171.4c0,28.9,7.2,57.6,20.9,82.8
		c1.6,2.9,4.6,4.7,7.9,4.7h278.4c3.3,0,6.3-1.8,7.9-4.7c13.7-25.2,20.9-53.8,20.9-82.8C336,125.6,318.6,82.6,286.9,50.3L286.9,50.3z
		 M301.7,240.8H34.3C23.6,219.4,18,195.5,18,171.4C18,86.8,85.3,18,168,18s150,68.8,150,153.4C318,195.5,312.4,219.4,301.7,240.8
		L301.7,240.8z M301.7,240.8"/>
</g>
</svg>
