<?xml version="1.0" encoding="utf-8"?>
<!-- Generator: Adobe Illustrator 21.0.2, SVG Export Plug-In . SVG Version: 6.00 Build 0)  -->
<svg version="1.1" id="Layer_1" xmlns="http://www.w3.org/2000/svg" xmlns:xlink="http://www.w3.org/1999/xlink" x="0px" y="0px"
	 viewBox="-16 -23.2 48 48" style="enable-background:new -16 -23.2 48 48;" xml:space="preserve">
<path d="M32,0.8c0-13.2-10.8-24-24-24s-24,10.8-24,24c0,7.4,3.4,14,8.7,18.4c0,0,0,0,0,0.1l0,0c4.2,3.4,9.5,5.5,15.3,5.5
	s11.1-2.1,15.3-5.5l0,0l0,0C28.6,14.8,32,8.2,32,0.8z M-14,0.8c0-12.1,9.9-22,22-22s22,9.9,22,22C30,7.2,27.2,13,22.9,17
	C19.3,12.5,13.8,9.8,8,9.8S-3.3,12.5-6.9,17C-11.2,13-14,7.2-14,0.8z M-5.3,18.3c3.2-4.1,8.1-6.5,13.3-6.5s10.1,2.4,13.3,6.5
	C17.6,21.1,13,22.8,8,22.8S-1.6,21.1-5.3,18.3z"/>
<path d="M8-15.2c-0.6,0-1-0.4-1-1v-2c0-0.6,0.4-1,1-1c0.6,0,1,0.4,1,1v2C9-15.6,8.6-15.2,8-15.2z"/>
<path d="M-0.6-13c-0.3,0-0.7-0.2-0.9-0.5l-1-1.7c-0.3-0.5-0.1-1.1,0.4-1.4c0.5-0.3,1.1-0.1,1.4,0.4l1,1.7c0.3,0.5,0.1,1.1-0.4,1.4
	C-0.3-13.1-0.4-13-0.6-13z"/>
<path d="M-7-6.9c-0.2,0-0.3,0-0.5-0.1l-1.7-1c-0.5-0.3-0.6-0.9-0.4-1.4s0.9-0.6,1.4-0.4l1.7,1C-6-8.5-5.9-7.9-6.1-7.4
	C-6.3-7-6.6-6.9-7-6.9z"/>
<path d="M-9,1.8h-2c-0.6,0-1-0.4-1-1s0.4-1,1-1h2c0.6,0,1,0.4,1,1C-8,1.4-8.4,1.8-9,1.8z"/>
<path d="M27,1.8h-2c-0.6,0-1-0.4-1-1s0.4-1,1-1h2c0.6,0,1,0.4,1,1C28,1.4,27.6,1.8,27,1.8z"/>
<path d="M22.6-6.8c-0.3,0-0.7-0.2-0.9-0.5c-0.3-0.5-0.1-1.1,0.4-1.4l1.7-1c0.5-0.3,1.1-0.1,1.4,0.4c0.3,0.5,0.1,1.1-0.4,1.4l-1.7,1
	C23-6.9,22.8-6.8,22.6-6.8z"/>
<path d="M16.3-13.1c-0.2,0-0.3,0-0.5-0.1c-0.5-0.3-0.6-0.9-0.4-1.4l1-1.7c0.3-0.5,0.9-0.6,1.4-0.4c0.5,0.3,0.6,0.9,0.4,1.4l-1,1.7
	C16.9-13.3,16.6-13.1,16.3-13.1z"/>
<path d="M19.3-5.8c-0.3-0.5-0.9-0.6-1.4-0.4l-7.5,4.3C9.8-2.4,9-2.8,8.1-2.8c-2,0-3.6,1.6-3.6,3.6s1.6,3.6,3.6,3.6s3.6-1.6,3.6-3.6
	c0-0.4-0.1-0.7-0.2-1l7.4-4.3C19.4-4.7,19.6-5.3,19.3-5.8z M8.1,2.5c-0.9,0-1.6-0.7-1.6-1.6c0-0.9,0.7-1.6,1.6-1.6
	C9-0.7,9.7,0,9.7,0.9C9.7,1.8,9,2.5,8.1,2.5z"/>
</svg>
