<?xml version="1.0" encoding="utf-8"?>
<!-- Generator: Adobe Illustrator 17.1.0, SVG Export Plug-In . SVG Version: 6.00 Build 0)  -->
<!DOCTYPE svg PUBLIC "-//W3C//DTD SVG 1.1//EN" "http://www.w3.org/Graphics/SVG/1.1/DTD/svg11.dtd">
<svg version="1.1" id="Слой_1" xmlns="http://www.w3.org/2000/svg" xmlns:xlink="http://www.w3.org/1999/xlink" x="0px" y="0px"
	 viewBox="0 0 34.1 32" enable-background="new 0 0 34.1 32" xml:space="preserve">
<g transform="translate(0,-952.36218)">
	<path d="M27.1,984.3c0.6-0.1,1-0.6,0.9-1.2c0,0,0,0,0-0.1l-1.7-10.2l7.5-7.3c0.4-0.4,0.4-1.1,0-1.5c-0.2-0.2-0.4-0.3-0.6-0.3
		l-10.4-1.6l-4.7-9.3c-0.3-0.5-0.9-0.7-1.4-0.5c-0.2,0.1-0.4,0.3-0.5,0.5l-4.7,9.3l-10.4,1.6c-0.6,0.1-1,0.6-0.9,1.2
		c0,0.2,0.1,0.4,0.3,0.6l7.5,7.3l-1.7,10.2c-0.1,0.6,0.3,1.1,0.9,1.2c0.2,0,0.5,0,0.7-0.1l9.4-4.8l9.4,4.8
		C26.6,984.3,26.8,984.3,27.1,984.3L27.1,984.3z M25.5,981.4l-8-4.1c-0.3-0.2-0.7-0.2-1,0l-8,4.1l1.5-8.7c0.1-0.3-0.1-0.7-0.3-0.9
		l-6.4-6.2l8.9-1.3c0.3-0.1,0.6-0.3,0.8-0.6l4-7.9l4,7.9c0.2,0.3,0.5,0.5,0.8,0.6l8.9,1.3l-6.4,6.2c-0.3,0.2-0.4,0.6-0.3,0.9
		L25.5,981.4z"/>
</g>
</svg>
