<?xml version="1.0" encoding="utf-8"?>
<!-- Generator: Adobe Illustrator 17.1.0, SVG Export Plug-In . SVG Version: 6.00 Build 0)  -->
<!DOCTYPE svg PUBLIC "-//W3C//DTD SVG 1.1//EN" "http://www.w3.org/Graphics/SVG/1.1/DTD/svg11.dtd">
<svg version="1.1" id="phone" xmlns="http://www.w3.org/2000/svg" xmlns:xlink="http://www.w3.org/1999/xlink" x="0px" y="0px"
	 viewBox="0 0.7 16 15.6" enable-background="new 0 0.7 16 15.6" xml:space="preserve">
<g>
	<path d="M0.8,0.7h3.7c0,0,0.4-0.1,0.7,1.2c0.4,1.4,0.8,2.7,0.8,2.7s0.3,0.3-0.2,1S4.4,7.2,4.4,7.2s1.2,2.2,2.7,3.3
		s2.5,1.7,2.5,1.7l1.5-1.5c0,0,0.3-0.5,1.1-0.3c0.8,0.2,2.9,0.6,3,0.6c0.1,0,0.7,0.1,0.7,0.8c0,0.6,0,3.1,0,3.1s0,1.1-0.8,1.2
		c-0.7,0.1-3.6-0.1-6.5-1.5c-3.4-1.6-5.6-4.5-6.3-5.5c-0.6-1-2-4.1-2.2-5.6S0,1.7,0,1.7S0,0.9,0.8,0.7z"/>
</g>
</svg>
