<?xml version="1.0" encoding="utf-8"?>
<!-- Generator: Adobe Illustrator 17.1.0, SVG Export Plug-In . SVG Version: 6.00 Build 0)  -->
<!DOCTYPE svg PUBLIC "-//W3C//DTD SVG 1.1//EN" "http://www.w3.org/Graphics/SVG/1.1/DTD/svg11.dtd">
<svg version="1.1" id="Слой_1" xmlns="http://www.w3.org/2000/svg" xmlns:xlink="http://www.w3.org/1999/xlink" x="0px" y="0px"
	 viewBox="0 0 93 77.8" enable-background="new 0 0 93 77.8" xml:space="preserve">
<g>
		<path clip-path="url(#SVGID_2_)" fill="none"  stroke-width="3" stroke-linecap="round" stroke-linejoin="round" stroke-miterlimit="10" d="
		M5.6,76.3H1.5V44.7h4.1c2.1,0,3.8,1.7,3.8,3.8v24.1C9.3,74.7,7.7,76.3,5.6,76.3z"/>
	
		<rect x="9.3" y="48.8" clip-path="url(#SVGID_2_)" fill="none"  stroke-width="3" stroke-linecap="round" stroke-linejoin="round" stroke-miterlimit="10" width="8.7" height="23.3"/>
	
		<path clip-path="url(#SVGID_2_)" fill="none"  stroke-width="3" stroke-linecap="round" stroke-linejoin="round" stroke-miterlimit="10" d="
		M28.3,64.7H18.1v-8.4h10.3c-1.2,1-1.9,2.5-1.9,4.2C26.5,62.2,27.2,63.7,28.3,64.7z"/>
	
		<path clip-path="url(#SVGID_2_)" fill="none"  stroke-width="3" stroke-linecap="round" stroke-linejoin="round" stroke-miterlimit="10" d="
		M46.7,40.1l-9.1,18.8c-0.7-2.4-2.9-4.1-5.5-4.1c-0.8,0-1.5,0.1-2.1,0.4l8.7-17.9L46.7,40.1z"/>
	
		<path clip-path="url(#SVGID_2_)" fill="none"  stroke-width="3" stroke-linecap="round" stroke-linejoin="round" stroke-miterlimit="10" d="
		M37.9,60.5c0,3.2-2.6,5.7-5.7,5.7c-1.5,0-2.8-0.6-3.8-1.5c-1.1-1-1.9-2.5-1.9-4.2c0-1.7,0.7-3.2,1.9-4.2c0.5-0.5,1.1-0.8,1.7-1.1
		c0.7-0.3,1.4-0.4,2.1-0.4c2.6,0,4.8,1.7,5.5,4.1C37.8,59.4,37.9,59.9,37.9,60.5z"/>
	
		<polyline clip-path="url(#SVGID_2_)" fill="none"  stroke-width="3" stroke-linecap="round" stroke-linejoin="round" stroke-miterlimit="10" points="
		28.9,3.7 22.1,22.8 69.3,39.4 91.5,23.3 29.6,1.5 19.4,30.5 75.6,50.3 82.9,29.5 	"/>
	
		<rect x="79.8" y="32.4" transform="matrix(0.9432 0.3321 -0.3321 0.9432 17.6634 -25.6843)" clip-path="url(#SVGID_2_)" fill="none"  stroke-width="3" stroke-linecap="round" stroke-linejoin="round" stroke-miterlimit="10" width="8.2" height="12.8"/>
</g>
</svg>
