<?xml version="1.0" encoding="utf-8"?>
<!-- Generator: Adobe Illustrator 16.0.0, SVG Export Plug-In . SVG Version: 6.00 Build 0)  -->
<!DOCTYPE svg PUBLIC "-//W3C//DTD SVG 1.1//EN" "http://www.w3.org/Graphics/SVG/1.1/DTD/svg11.dtd">
<svg version="1.1" id="view" class="icon view" xmlns="http://www.w3.org/2000/svg" xmlns:xlink="http://www.w3.org/1999/xlink" x="0px" y="0px"
	 width="18px" height="10px" viewBox="0 0 18 10" enable-background="new 0 0 18 10" xml:space="preserve">
<path d="M9,3c1.141,0,2,0.86,2,2c0,1.141-0.859,2-2,2C7.86,7,7,6.141,7,5C7,3.86,7.86,3,9,3 M9,2C7.3,2,6,3.3,6,5
	s1.3,3,3,3s3-1.3,3-3S10.7,2,9,2L9,2z"/>
<path d="M9,1c4.277,0,6.668,2.402,7.75,3.917C15.33,6.552,13.019,9,9,9C5.142,9,2.546,6.576,1.289,5.039
	C2.711,3.403,5.017,1,9,1 M9,0C4,0,1.4,3.4,0,5c1,1.4,4,5,9,5s7.6-3.4,9-5C16.8,3,14,0,9,0L9,0z"/>
</svg>
