<?xml version="1.0" encoding="utf-8"?>
<!-- Generator: Adobe Illustrator 17.1.0, SVG Export Plug-In . SVG Version: 6.00 Build 0)  -->
<!DOCTYPE svg PUBLIC "-//W3C//DTD SVG 1.1//EN" "http://www.w3.org/Graphics/SVG/1.1/DTD/svg11.dtd">
<svg version="1.1" id="Слой_1" xmlns="http://www.w3.org/2000/svg" xmlns:xlink="http://www.w3.org/1999/xlink" x="0px" y="0px"
	 viewBox="0 0 108.3 33.2" enable-background="new 0 0 108.3 33.2" xml:space="preserve">
<g>
	<g>
		<polygon fill="#00589F" points="38.2,32.7 43.7,0.6 52.4,0.6 46.9,32.7 		"/>
		<path fill="#00589F" d="M78.8,1.4C77,0.7,74.3,0,70.9,0c-8.7,0-14.8,4.4-14.8,10.6c0,4.6,4.4,7.2,7.7,8.7c3.4,1.6,4.6,2.6,4.5,4
			c0,2.2-2.7,3.1-5.2,3.1c-3.5,0-5.4-0.5-8.3-1.7l-1.1-0.5l-1.2,7.2c2,0.9,5.8,1.7,9.8,1.7c9.2,0,15.2-4.3,15.3-11
			c0-3.7-2.3-6.4-7.4-8.7c-3.1-1.5-4.9-2.5-4.9-4c0-1.3,1.6-2.8,5-2.8c2.9,0,4.9,0.6,6.6,1.2l0.8,0.4L78.8,1.4"/>
		<path fill="#00589F" d="M101.2,0.6h-6.8c-2.1,0-3.7,0.6-4.6,2.7l-13,29.5h9.2c0,0,1.5-4,1.8-4.8c1,0,10,0,11.2,0
			c0.3,1.1,1.1,4.8,1.1,4.8h8.1L101.2,0.6 M90.4,21.3c0.7-1.9,3.5-9,3.5-9c-0.1,0.1,0.7-1.9,1.2-3.1l0.6,2.8c0,0,1.7,7.7,2,9.3H90.4
			z"/>
		<path fill="#00589F" d="M30.8,0.6l-8.6,21.9l-0.9-4.5C19.7,12.9,14.7,7.4,9.2,4.6L17,32.7l9.3,0L40.1,0.6H30.8"/>
		<path fill="#F9A51A" d="M14.3,0.6H0.1L0,1.2c11,2.7,18.3,9.1,21.3,16.8L18.2,3.3C17.7,1.2,16.2,0.6,14.3,0.6"/>
	</g>
</g>
</svg>
