<?xml version="1.0" encoding="utf-8"?>
<!-- Generator: Adobe Illustrator 17.1.0, SVG Export Plug-In . SVG Version: 6.00 Build 0)  -->
<!DOCTYPE svg PUBLIC "-//W3C//DTD SVG 1.1//EN" "http://www.w3.org/Graphics/SVG/1.1/DTD/svg11.dtd">
<svg version="1.1" id="Слой_1" xmlns="http://www.w3.org/2000/svg" xmlns:xlink="http://www.w3.org/1999/xlink" x="0px" y="0px"
	 viewBox="0 0 62.9 77.6" enable-background="new 0 0 62.9 77.6" xml:space="preserve">
<g>
	<path fill="#FFCE01" d="M9,38.2c0-3.3,0.3-5.4,7.2-10.6c5.7-4.3,24-18.8,24-18.8v24.3H54V68H13.3c-2.4,0-4.3-2-4.3-4.3L9,38.2z"/>
	<g>
		<g>
			<polygon fill="#D2AA07" points="40.1,33.1 40.1,47.1 14.6,64.5 46.9,54 46.9,33.1 			"/>
			<path fill="#231F20" d="M28.4,32.3c1.5-1.8,3.7-2.4,4.9-1.4c1.2,1,1,3.3-0.5,5c-1.5,1.8-3.7,2.4-4.9,1.4
				C26.7,36.4,27,34.1,28.4,32.3"/>
		</g>
	</g>
</g>
</svg>
