<?xml version="1.0" encoding="utf-8"?>
<!-- Generator: Adobe Illustrator 17.1.0, SVG Export Plug-In . SVG Version: 6.00 Build 0)  -->
<!DOCTYPE svg PUBLIC "-//W3C//DTD SVG 1.1//EN" "http://www.w3.org/Graphics/SVG/1.1/DTD/svg11.dtd">
<svg version="1.1" id="Слой_1" xmlns="http://www.w3.org/2000/svg" xmlns:xlink="http://www.w3.org/1999/xlink" x="0px" y="0px"
	 viewBox="0 0 442.4 508" enable-background="new 0 0 442.4 508" xml:space="preserve" fill="#0802ff">
<g>
	<defs>
		<rect id="SVGID_1_" width="442.4" height="508"/>
	</defs>
	<clipPath id="SVGID_2_">
		<use xlink:href="#SVGID_1_"  overflow="visible"/>
	</clipPath>
	<path clip-path="url(#SVGID_2_)" d="M122.9,295H24.6c-4.5,0-8.2-3.7-8.2-8.2v-98.3C16.4,129.8,64.2,82,122.9,82h155.7
		c4.5,0,8.2,3.7,8.2,8.2v98.3c0,4.5-3.7,8.2-8.2,8.2H139.3c-4.5,0-8.2,3.7-8.2,8.2v81.9C131.1,291.3,127.4,295,122.9,295
		 M32.8,278.6h81.9v-73.7c0-13.6,11-24.6,24.6-24.6h131.1V98.4H122.9c-49.7,0-90.1,40.4-90.1,90.1V278.6z"/>
	<path clip-path="url(#SVGID_2_)" d="M327.7,213h-49.2c-4.5,0-8.2-3.7-8.2-8.2V73.7c0-4.5,3.7-8.2,8.2-8.2h49.2
		c4.5,0,8.2,3.7,8.2,8.2v131.1C335.9,209.4,332.2,213,327.7,213 M286.7,196.6h32.8V81.9h-32.8V196.6z"/>
	<path clip-path="url(#SVGID_2_)" d="M434.2,196.6H327.7c-4.5,0-8.2-3.7-8.2-8.2V90.1c0-4.5,3.7-8.2,8.2-8.2h106.5
		c4.5,0,8.2,3.7,8.2,8.2v98.3C442.4,193,438.8,196.6,434.2,196.6 M335.9,180.3H426V98.4h-90.1V180.3z"/>
	<path clip-path="url(#SVGID_2_)" d="M319.5,81.9h-32.8c-4.5,0-8.2-3.7-8.2-8.2V8.2c0-4.5,3.7-8.2,8.2-8.2h32.8
		c4.5,0,8.2,3.7,8.2,8.2v65.5C327.7,78.3,324,81.9,319.5,81.9 M294.9,65.6h16.4V16.4h-16.4V65.6z"/>
	<path clip-path="url(#SVGID_2_)" d="M397.1,65.6c-1.7,0-3.3-0.2-5-0.5L318,50.5c-3.8-0.8-6.6-4.1-6.6-8V23.1c0-3.9,2.8-7.3,6.6-8
		l74.1-14.6c18-3.5,34,12.3,34,32.3C426,50.9,413,65.6,397.1,65.6 M327.7,35.7L395.2,49c7.6,1.5,14.5-6.5,14.5-16.2
		c0-9.7-6.8-17.8-14.5-16.2l-67.5,13.3V35.7z"/>
	<path clip-path="url(#SVGID_2_)" d="M209.2,65.6c-16,0-29-14.7-29-32.8c0-19.9,16-35.8,34-32.3l74.1,14.6c3.8,0.8,6.6,4.1,6.6,8
		v19.3c0,3.9-2.8,7.3-6.6,8L214.2,65C212.6,65.4,210.9,65.6,209.2,65.6 M209.2,16.4c-6.8,0-12.6,7.5-12.6,16.4
		c0,9.7,6.9,17.7,14.5,16.2l67.5-13.3v-5.9l-67.5-13.3C210.5,16.5,209.8,16.4,209.2,16.4"/>
	<path clip-path="url(#SVGID_2_)" d="M139.3,327.7H8.2c-4.5,0-8.2-3.7-8.2-8.2v-32.8c0-4.5,3.7-8.2,8.2-8.2h131.1
		c4.5,0,8.2,3.7,8.2,8.2v32.8C147.5,324.1,143.8,327.7,139.3,327.7 M16.4,311.4h114.7V295H16.4V311.4z"/>
	<path clip-path="url(#SVGID_2_)" d="M65.5,508C29.4,508,0,478.6,0,442.5c0-34,53.6-89.6,59.7-95.9c3.1-3.1,8.6-3.1,11.7,0
		c6.1,6.2,59.7,61.8,59.7,95.9C131.1,478.6,101.7,508,65.5,508 M65.5,364.2c-17.7,19.2-49.2,57.6-49.2,78.2
		c0,27.1,22.1,49.2,49.2,49.2s49.2-22.1,49.2-49.2C114.7,421.8,83.2,383.4,65.5,364.2"/>
</g>
</svg>
