<?xml version="1.0" encoding="utf-8"?>
<!-- Generator: Adobe Illustrator 21.1.0, SVG Export Plug-In . SVG Version: 6.00 Build 0)  -->
<svg version="1.1" id="Capa_1" xmlns="http://www.w3.org/2000/svg" xmlns:xlink="http://www.w3.org/1999/xlink" x="0px" y="0px"
	 viewBox="0 0 427.8 427.8" style="enable-background:new 0 0 427.8 427.8;" xml:space="preserve" fill="#ee530e">
<path d="M369.6,155.7C369.6,69.9,299.7,0,213.9,0S58.2,69.9,58.2,155.7c0,51.7,25.5,99.7,68.2,128.8c0.2,0.2,0.4,0.3,0.6,0.5
	c0.5,0.3,0.9,0.7,1.4,1c15.6,11.7,22.6,23.1,25.8,42v41.2c0,22.3,15.2,41,35.6,45.8c1,7.1,7.1,12.7,14.6,12.7h19.6
	c7.4,0,13.6-5.5,14.6-12.7c20.3-4.8,35.5-23.5,35.5-45.8v-41.2c3.3-19.5,10.8-31.6,26.8-43c0.1-0.1,0.2-0.2,0.3-0.3
	C344,255.7,369.6,207.6,369.6,155.7z M257.9,369.3c0,17.1-13.4,31-29.8,31h-28.1c-11.4,0-21.3-6.7-26.3-16.4h60.6c4.4,0,8-3.6,8-8
	s-3.6-8-8-8h-64.1v-8h64.1c4.4,0,8-3.6,8-8s-3.6-8-8-8h-64.1v-7.8h87.8V369.3z M202.1,320.1L166,193.4c2.6,2.2,6,4,10.6,4
	c8.8,0,13.2-6.4,15.9-10.2c0.8-1.1,2.1-3,2.6-3.3c0,0,0,0,0.1,0c0,0,0.1,0,0.1,0c0.6,0.4,1.8,2.2,2.6,3.3c2.6,3.8,7,10.2,15.9,10.2
	c8.8,0,13.2-6.4,15.9-10.2c0.8-1.1,2.1-3,2.6-3.3c0,0,0,0,0.1,0c0,0,0.1,0,0.1,0c0.6,0.3,1.9,2.2,2.6,3.3c2.6,3.8,7,10.2,15.9,10.2
	c5.2,0,8.9-2.2,11.5-4.8l-36.3,127.5L202.1,320.1L202.1,320.1z M291.2,272.1c-0.3,0.2-0.6,0.4-0.9,0.7
	c-17.4,12.8-26.7,26.8-31.2,47.2h-16.4l42.9-150.7c1.2-4.2-1.3-8.7-5.5-9.9c-4.2-1.2-8.7,1.3-9.9,5.5l-0.8,2.9
	c-8.8,0-13.2,6.4-15.8,10.2c-0.8,1.1-2.1,3-2.6,3.3c0,0,0,0-0.1,0c-0.1,0-0.1,0-0.1,0c-0.6-0.3-1.9-2.2-2.6-3.3
	c-2.6-3.8-7-10.2-15.9-10.2s-13.2,6.4-15.9,10.2c-0.8,1.1-2.1,3-2.6,3.3c0,0,0,0-0.1,0c0,0-0.1,0-0.1,0c-0.6-0.4-1.8-2.2-2.6-3.3
	c-2.6-3.8-7-10.2-15.9-10.2c-8.8,0-13.2,6.4-15.9,10.2c-0.8,1.1-2.1,3-2.6,3.3c0,0,0,0-0.1,0c0,0-0.1,0-0.1,0
	c-0.6-0.4-1.8-2.2-2.6-3.3c-2.6-3.7-6.8-9.8-15.2-10.1l-0.8-2.9c-1.2-4.2-5.6-6.7-9.9-5.5c-4.2,1.2-6.7,5.6-5.5,9.9L185.4,320h-16.5
	c-4.4-20-13.6-33.8-30.9-46.8c-0.3-0.2-0.6-0.4-0.9-0.7c-0.3-0.3-0.6-0.5-0.9-0.7c-38.8-26-62-69.5-62-116.1
	c0-77,62.7-139.7,139.7-139.7s139.7,62.7,139.7,139.7C353.6,202.6,330.3,246.1,291.2,272.1z"/>
</svg>
