<?xml version="1.0" encoding="utf-8"?>
<!-- Generator: Adobe Illustrator 17.1.0, SVG Export Plug-In . SVG Version: 6.00 Build 0)  -->
<!DOCTYPE svg PUBLIC "-//W3C//DTD SVG 1.1//EN" "http://www.w3.org/Graphics/SVG/1.1/DTD/svg11.dtd">
<svg version="1.1" id="Слой_1" xmlns="http://www.w3.org/2000/svg" xmlns:xlink="http://www.w3.org/1999/xlink" x="0px" y="0px"
	 viewBox="0 0 86.9 86.7" enable-background="new 0 0 86.9 86.7" xml:space="preserve" fill="#ee530e">
<g>
	<defs>
		<rect id="SVGID_1_" y="0" width="86.9" height="86.7"/>
	</defs>
	<clipPath id="SVGID_2_">
		<use xlink:href="#SVGID_1_"  overflow="visible"/>
	</clipPath>
	<path clip-path="url(#SVGID_2_)" d="M81.7,56.5c-5-5-12.6-6.5-19.2-3.9l-13.1-13l21.5-21.5h4.7c0.5,0,0.9-0.2,1.2-0.6l6.6-8.7
		c0.4-0.6,0.4-1.4-0.1-2l-1.6-1.6l-1.6-1.6c-0.5-0.5-1.4-0.6-2-0.1l-8.7,6.6c-0.4,0.3-0.6,0.7-0.6,1.2V16L47.3,37.5L34.2,24.4
		c2.7-6.6,1.2-14.1-3.9-19.2c-4.9-4.9-12.3-6.5-18.8-4c-0.5,0.2-0.8,0.6-0.9,1.1s0,1,0.4,1.4l6.6,6.6c1,1,1.5,2.3,1.5,3.7
		c0,1.4-0.5,2.7-1.5,3.7s-2.3,1.5-3.7,1.5c-1.4,0-2.7-0.5-3.7-1.5l-6.6-6.6c-0.4-0.4-0.9-0.5-1.4-0.4s-0.9,0.5-1.1,0.9
		c-2.4,6.5-0.9,13.9,4,18.8c5,5,12.6,6.5,19.2,3.9l5.9,5.9l-0.6,0.6c-0.3,0.3-0.4,0.7-0.4,1.1v1.6c0,1.3-1.1,2.4-2.4,2.4h-1.5
		c-0.4,0-0.8,0.2-1.1,0.4l-18.9,19c-1.2,1.2-1.9,3-1.9,4.7l0.1,5.7c0.1,4.3,3.5,7.7,7.7,7.7l5.7,0.1H17c1.7,0,3.4-0.7,4.6-1.9
		l19.1-19.1c0.3-0.3,0.4-0.7,0.4-1.1v-1.5c0-1.3,1.1-2.4,2.4-2.4h1.6c0.4,0,0.8-0.2,1.1-0.4l0.6-0.6l5.9,5.9
		C50,69,51.5,76.5,56.6,81.6c4.9,4.9,12.3,6.5,18.8,4c0.5-0.2,0.8-0.6,0.9-1.1s0-1-0.4-1.4l-6.6-6.6c-1-1-1.5-2.3-1.5-3.7
		c0-1.4,0.5-2.7,1.5-3.7s2.3-1.5,3.7-1.5c1.4,0,2.7,0.5,3.7,1.5l6.6,6.6c0.4,0.4,0.9,0.5,1.4,0.4s0.9-0.5,1.1-0.9
		c0.8-2,1.1-4.1,1.1-6.2C86.9,64.5,85.1,59.9,81.7,56.5 M71.8,12l7.1-5.3l0.6,0.7l0.7,0.7l-5.3,7.1h-3.1V12 M25.9,31.3
		c-0.4-0.4-1.1-0.6-1.7-0.3c-5.6,2.7-12.4,1.5-16.8-2.9c-3.5-3.5-5-8.5-4-13.3l4.8,4.8c3.2,3.2,8.4,3.2,11.6,0
		c3.2-3.2,3.2-8.4,0-11.6L15,3.2c4.8-0.9,9.8,0.5,13.3,4c4.4,4.4,5.6,11.1,2.9,16.8c-0.3,0.6-0.2,1.3,0.3,1.7l13.8,13.8l-3.2,3.2
		L36,36.6c-0.3-0.3-0.7-0.4-1.1-0.4c-0.4,0-0.8,0.2-1.1,0.4l-1.3,1.3L25.9,31.3z M44.7,54.4L44.7,54.4l-1.1,0.1
		c-3,0-5.4,2.4-5.4,5.4v0.9L19.5,79.5c-0.7,0.7-1.6,1.1-2.6,1l-5.7-0.1c-2.6,0-4.7-2.1-4.8-4.8l-0.1-5.7c0-1,0.4-1.9,1-2.6L26,48.6
		h0.9c3,0,5.4-2.4,5.4-5.4v-1l0.1-0.1l2.1-2.1l12.2,12.2L44.7,54.4z M83.6,71.9l-4.8-4.8c-3.2-3.2-8.4-3.2-11.6,0
		c-3.2,3.2-3.2,8.4,0,11.6l4.8,4.8c-4.8,0.9-9.8-0.5-13.3-4c-4.4-4.4-5.5-11.1-2.9-16.8c0.3-0.6,0.2-1.3-0.3-1.7L49,54.4l1.2-1.2
		c0.3-0.3,0.4-0.7,0.4-1.1c0-0.4-0.2-0.8-0.4-1.1l-6.1-6.1l3.2-3.2l13.8,13.8c0.4,0.4,1.1,0.6,1.7,0.3c5.6-2.7,12.4-1.5,16.8,2.9
		C83.1,62.2,84.6,67.2,83.6,71.9"/>
	<path clip-path="url(#SVGID_2_)" d="M29.5,52.8c-0.6-0.6-1.5-0.6-2.1,0L10.6,69.6c-0.6,0.6-0.6,1.5,0,2.1c0.3,0.3,0.7,0.4,1.1,0.4
		c0.4,0,0.8-0.1,1.1-0.4L29.5,55C30.1,54.4,30.1,53.4,29.5,52.8"/>
	<path clip-path="url(#SVGID_2_)" d="M31.9,57.4L15.2,74.2c-0.6,0.6-0.6,1.5,0,2.1c0.3,0.3,0.7,0.4,1.1,0.4s0.8-0.1,1.1-0.4
		l16.8-16.8c0.6-0.6,0.6-1.5,0-2.1C33.6,56.8,32.5,56.8,31.9,57.4"/>
</g>
</svg>
